<?xml version="1.0" encoding="utf-8" ?>
<svg baseProfile="tiny" height="180" version="1.2" width="180" xmlns="http://www.w3.org/2000/svg" xmlns:ev="http://www.w3.org/2001/xml-events" xmlns:xlink="http://www.w3.org/1999/xlink"><defs /><rect fill="black" height="100%" width="100%" x="0" y="0" /><path d="M 155.0,111.99803921568628 L 154.0,111.99803921568628 L 153.0,111.99803921568628 L 152.0,111.99803921568628 L 151.0,111.99803921568628 L 150.0,111.99803921568628 L 149.0,111.99803921568628 L 148.0,111.99803921568628 L 147.0,111.99803921568628 L 146.0,111.99803921568628 L 145.0,111.99803921568628 L 144.0,111.99803921568628 L 143.0,111.99803921568628 L 142.0,111.99803921568628 L 141.0,111.99803921568628 L 140.0,111.99803921568628 L 139.0,111.99803921568628 L 138.0,111.99803921568628 L 137.0,111.99803921568628 L 136.0,111.99803921568628 L 135.0,111.99803921568628 L 134.0,111.99803921568628 L 133.0,111.99803921568628 L 132.0,111.99803921568628 L 131.0,111.99803921568628 L 130.0,111.99803921568628 L 129.0,111.99803921568628 L 128.0,111.99803921568628 L 127.0,111.99803921568628 L 126.0,111.99803921568628 L 125.0,111.99803921568628 L 124.0,111.99803921568628 L 123.0,111.99803921568628 L 122.0,111.99803921568628 L 121.0,111.99803921568628 L 120.0,111.99803921568628 L 119.0,111.99803921568628 L 118.0,111.99803921568628 L 117.0,111.99803921568628 L 116.0,111.99803921568628 L 115.0,111.99803921568628 L 114.0,111.99803921568628 L 113.0,111.99803921568628 L 112.0,111.99803921568628 L 111.0,111.99803921568628 L 110.0,111.99803921568628 L 109.0,111.99803921568628 L 108.0,111.99803921568628 L 107.0,111.99803921568628 L 106.0,111.99803921568628 L 105.0,111.99803921568628 L 104.0,111.99803921568628 L 103.0,111.99803921568628 L 102.0,111.99803921568628 L 101.0,111.99803921568628 L 100.0,111.99803921568628 L 99.0,111.99803921568628 L 98.0,111.99803921568628 L 97.0,111.99803921568628 L 96.0,111.99803921568628 L 95.0,111.99803921568628 L 94.0,111.99803921568628 L 93.0,111.99803921568628 L 92.0,111.99803921568628 L 91.0,111.99803921568628 L 90.0,111.99803921568628 L 89.0,111.99803921568628 L 88.0,111.99803921568628 L 87.0,111.99803921568628 L 86.0,111.99803921568628 L 85.0,111.99803921568628 L 84.0,111.99803921568628 L 83.0,111.99803921568628 L 82.0,111.99803921568628 L 81.0,111.99803921568628 L 80.0,111.99803921568628 L 79.0,111.99803921568628 L 78.0,111.99803921568628 L 77.0,111.99803921568628 L 76.0,111.99803921568628 L 75.0,111.99803921568628 L 74.0,111.99803921568628 L 73.0,111.99803921568628 L 72.0,111.99803921568628 L 71.0,111.99803921568628 L 70.0,111.99803921568628 L 69.0,111.99803921568628 L 68.0,111.99803921568628 L 67.0,111.99803921568628 L 66.0,111.99803921568628 L 65.0,111.99803921568628 L 64.0,111.99803921568628 L 63.0,111.99803921568628 L 62.0,111.99803921568628 L 61.0,111.99803921568628 L 60.0,111.99803921568628 L 59.0,111.99803921568628 L 58.0,111.99803921568628 L 57.0,111.99803921568628 L 56.0,111.99803921568628 L 55.0,111.99803921568628 L 54.0,111.99803921568628 L 53.0,111.99803921568628 L 52.0,111.99803921568628 L 51.0,111.99803921568628 L 50.0,111.99803921568628 L 49.0,111.99803921568628 L 48.0,111.99803921568628 L 47.0,111.99803921568628 L 46.0,111.99803921568628 L 45.0,111.99803921568628 L 44.0,111.99803921568628 L 43.0,111.99803921568628 L 42.0,111.99803921568628 L 41.0,111.99803921568628 L 40.0,111.99803921568628 L 39.0,111.99803921568628 L 38.0,111.99803921568628 L 37.0,111.99803921568628 L 36.0,111.99803921568628 L 35.0,111.99803921568628 L 34.0,111.99803921568628 L 33.0,111.99803921568628 L 32.0,111.99803921568628 L 31.0,111.99803921568628 L 30.0,111.99803921568628 L 29.0,111.99803921568628 L 28.0,111.99803921568628 L 27.0,111.99803921568628 L 26.0,111.99803921568628 L 25.0,111.99803921568628 L 24.0,111.99803921568628 L 23.0,111.99803921568628 L 22.0,111.99803921568628 L 21.0,111.99803921568628 L 20.0,111.99803921568628 L 19.0,111.99803921568628 L 18.0,111.99803921568628 L 17.0,111.99803921568628 L 16.0,111.99803921568628 L 15.0,111.99803921568628 L 14.001960784313725,111.0 L 14.001960784313725,110.0 L 14.001960784313725,109.0 L 14.001960784313725,108.0 L 14.001960784313725,107.0 L 14.001960784313725,106.0 L 14.001960784313725,105.0 L 14.001960784313725,104.0 L 14.001960784313725,103.0 L 14.001960784313725,102.0 L 14.001960784313725,101.0 L 14.001960784313725,100.0 L 14.001960784313725,99.0 L 14.001960784313725,98.0 L 14.001960784313725,97.0 L 14.001960784313725,96.0 L 14.001960784313725,95.0 L 14.001960784313725,94.0 L 14.001960784313725,93.0 L 14.001960784313725,92.0 L 14.001960784313725,91.0 L 14.001960784313725,90.0 L 14.001960784313725,89.0 L 14.001960784313725,88.0 L 14.001960784313725,87.0 L 14.001960784313725,86.0 L 14.001960784313725,85.0 L 14.001960784313725,84.0 L 14.001960784313725,83.0 L 14.001960784313725,82.0 L 14.001960784313725,81.0 L 14.001960784313725,80.0 L 14.001960784313725,79.0 L 14.001960784313725,78.0 L 14.001960784313725,77.0 L 14.001960784313725,76.0 L 14.001960784313725,75.0 L 14.001960784313725,74.0 L 14.001960784313725,73.0 L 14.001960784313725,72.0 L 14.001960784313725,71.0 L 14.001960784313725,70.0 L 14.001960784313725,69.0 L 14.001960784313725,68.0 L 14.001960784313725,67.0 L 14.001960784313725,66.0 L 14.001960784313725,65.0 L 15.0,64.00196078431372 L 16.0,64.00196078431372 L 17.0,64.00196078431372 L 18.0,64.00196078431372 L 19.0,64.00196078431372 L 20.0,64.00196078431372 L 21.0,64.00196078431372 L 22.0,64.00196078431372 L 23.0,64.00196078431372 L 24.0,64.00196078431372 L 25.0,64.00196078431372 L 26.0,64.00196078431372 L 27.0,64.00196078431372 L 28.0,64.00196078431372 L 29.0,64.00196078431372 L 30.0,64.00196078431372 L 31.0,64.00196078431372 L 32.0,64.00196078431372 L 33.0,64.00196078431372 L 34.0,64.00196078431372 L 35.0,64.00196078431372 L 36.0,64.00196078431372 L 37.0,64.00196078431372 L 38.0,64.00196078431372 L 39.0,64.00196078431372 L 40.0,64.00196078431372 L 41.0,64.00196078431372 L 42.0,64.00196078431372 L 43.0,64.00196078431372 L 44.0,64.00196078431372 L 45.0,64.00196078431372 L 46.0,64.00196078431372 L 47.0,64.00196078431372 L 48.0,64.00196078431372 L 49.0,64.00196078431372 L 50.0,64.00196078431372 L 51.0,64.00196078431372 L 52.0,64.00196078431372 L 53.0,64.00196078431372 L 54.0,64.00196078431372 L 55.0,64.00196078431372 L 56.0,64.00196078431372 L 57.0,64.00196078431372 L 58.0,64.00196078431372 L 59.0,64.00196078431372 L 60.0,64.00196078431372 L 61.0,64.00196078431372 L 62.0,64.00196078431372 L 63.0,64.00196078431372 L 64.0,64.00196078431372 L 65.0,64.00196078431372 L 66.0,64.00196078431372 L 67.0,64.00196078431372 L 68.0,64.00196078431372 L 69.0,64.00196078431372 L 70.0,64.00196078431372 L 71.0,64.00196078431372 L 72.0,64.00196078431372 L 73.0,64.00196078431372 L 74.0,64.00196078431372 L 75.0,64.00196078431372 L 76.0,64.00196078431372 L 77.0,64.00196078431372 L 78.0,64.00196078431372 L 79.0,64.00196078431372 L 80.0,64.00196078431372 L 81.0,64.00196078431372 L 82.0,64.00196078431372 L 83.0,64.00196078431372 L 84.0,64.00196078431372 L 85.0,64.00196078431372 L 86.0,64.00196078431372 L 87.0,64.00196078431372 L 88.0,64.00196078431372 L 89.0,64.00196078431372 L 90.0,64.00196078431372 L 91.0,64.00196078431372 L 92.0,64.00196078431372 L 93.0,64.00196078431372 L 94.0,64.00196078431372 L 95.0,64.00196078431372 L 96.0,64.00196078431372 L 97.0,64.00196078431372 L 98.0,64.00196078431372 L 99.0,64.00196078431372 L 100.0,64.00196078431372 L 101.0,64.00196078431372 L 102.0,64.00196078431372 L 103.0,64.00196078431372 L 104.0,64.00196078431372 L 105.0,64.00196078431372 L 106.0,64.00196078431372 L 107.0,64.00196078431372 L 108.0,64.00196078431372 L 109.0,64.00196078431372 L 110.0,64.00196078431372 L 111.0,64.00196078431372 L 112.0,64.00196078431372 L 113.0,64.00196078431372 L 114.0,64.00196078431372 L 115.0,64.00196078431372 L 116.0,64.00196078431372 L 117.0,64.00196078431372 L 118.0,64.00196078431372 L 119.0,64.00196078431372 L 120.0,64.00196078431372 L 121.0,64.00196078431372 L 122.0,64.00196078431372 L 123.0,64.00196078431372 L 124.0,64.00196078431372 L 125.0,64.00196078431372 L 126.0,64.00196078431372 L 127.0,64.00196078431372 L 128.0,64.00196078431372 L 129.0,64.00196078431372 L 130.0,64.00196078431372 L 131.0,64.00196078431372 L 132.0,64.00196078431372 L 133.0,64.00196078431372 L 134.0,64.00196078431372 L 135.0,64.00196078431372 L 136.0,64.00196078431372 L 137.0,64.00196078431372 L 138.0,64.00196078431372 L 139.0,64.00196078431372 L 140.0,64.00196078431372 L 141.0,64.00196078431372 L 142.0,64.00196078431372 L 143.0,64.00196078431372 L 144.0,64.00196078431372 L 145.0,64.00196078431372 L 146.0,64.00196078431372 L 147.0,64.00196078431372 L 148.0,64.00196078431372 L 149.0,64.00196078431372 L 150.0,64.00196078431372 L 151.0,64.00196078431372 L 152.0,64.00196078431372 L 153.0,64.00196078431372 L 154.0,64.00196078431372 L 155.0,64.00196078431372 L 155.99803921568628,65.0 L 155.99803921568628,66.0 L 155.99803921568628,67.0 L 155.99803921568628,68.0 L 155.99803921568628,69.0 L 155.99803921568628,70.0 L 155.99803921568628,71.0 L 155.99803921568628,72.0 L 155.99803921568628,73.0 L 155.99803921568628,74.0 L 155.99803921568628,75.0 L 155.99803921568628,76.0 L 155.99803921568628,77.0 L 155.99803921568628,78.0 L 155.99803921568628,79.0 L 155.99803921568628,80.0 L 155.0,80.99803921568628 L 154.0,80.99803921568628 L 153.00196078431372,80.0 L 153.0,79.99803921568628 L 152.00196078431372,79.0 L 152.00196078431372,78.0 L 152.00196078431372,77.0 L 152.00196078431372,76.0 L 152.00196078431372,75.0 L 152.00196078431372,74.0 L 152.00196078431372,73.0 L 152.00196078431372,72.0 L 152.00196078431372,71.0 L 152.00196078431372,70.0 L 152.00196078431372,69.0 L 152.00196078431372,68.0 L 152.0,67.99803921568628 L 151.0,67.99803921568628 L 150.0,67.99803921568628 L 149.0,67.99803921568628 L 148.0,67.99803921568628 L 147.0,67.99803921568628 L 146.0,67.99803921568628 L 145.0,67.99803921568628 L 144.0,67.99803921568628 L 143.0,67.99803921568628 L 142.0,67.99803921568628 L 141.0,67.99803921568628 L 140.0,67.99803921568628 L 139.0,67.99803921568628 L 138.0,67.99803921568628 L 137.0,67.99803921568628 L 136.0,67.99803921568628 L 135.0,67.99803921568628 L 134.0,67.99803921568628 L 133.0,67.99803921568628 L 132.0,67.99803921568628 L 131.0,67.99803921568628 L 130.0,67.99803921568628 L 129.0,67.99803921568628 L 128.0,67.99803921568628 L 127.0,67.99803921568628 L 126.0,67.99803921568628 L 125.0,67.99803921568628 L 124.0,67.99803921568628 L 123.0,67.99803921568628 L 122.0,67.99803921568628 L 121.0,67.99803921568628 L 120.0,67.99803921568628 L 119.0,67.99803921568628 L 118.0,67.99803921568628 L 117.0,67.99803921568628 L 116.0,67.99803921568628 L 115.0,67.99803921568628 L 114.0,67.99803921568628 L 113.0,67.99803921568628 L 112.0,67.99803921568628 L 111.0,67.99803921568628 L 110.0,67.99803921568628 L 109.0,67.99803921568628 L 108.0,67.99803921568628 L 107.0,67.99803921568628 L 106.0,67.99803921568628 L 105.0,67.99803921568628 L 104.0,67.99803921568628 L 103.0,67.99803921568628 L 102.0,67.99803921568628 L 101.0,67.99803921568628 L 100.0,67.99803921568628 L 99.0,67.99803921568628 L 98.0,67.99803921568628 L 97.0,67.99803921568628 L 96.0,67.99803921568628 L 95.0,67.99803921568628 L 94.0,67.99803921568628 L 93.0,67.99803921568628 L 92.0,67.99803921568628 L 91.0,67.99803921568628 L 90.0,67.99803921568628 L 89.0,67.99803921568628 L 88.0,67.99803921568628 L 87.0,67.99803921568628 L 86.0,67.99803921568628 L 85.0,67.99803921568628 L 84.0,67.99803921568628 L 83.0,67.99803921568628 L 82.0,67.99803921568628 L 81.0,67.99803921568628 L 80.0,67.99803921568628 L 79.0,67.99803921568628 L 78.0,67.99803921568628 L 77.0,67.99803921568628 L 76.0,67.99803921568628 L 75.0,67.99803921568628 L 74.0,67.99803921568628 L 73.0,67.99803921568628 L 72.0,67.99803921568628 L 71.0,67.99803921568628 L 70.0,67.99803921568628 L 69.0,67.99803921568628 L 68.0,67.99803921568628 L 67.0,67.99803921568628 L 66.0,67.99803921568628 L 65.0,67.99803921568628 L 64.0,67.99803921568628 L 63.0,67.99803921568628 L 62.0,67.99803921568628 L 61.0,67.99803921568628 L 60.0,67.99803921568628 L 59.0,67.99803921568628 L 58.0,67.99803921568628 L 57.0,67.99803921568628 L 56.0,67.99803921568628 L 55.0,67.99803921568628 L 54.0,67.99803921568628 L 53.0,67.99803921568628 L 52.0,67.99803921568628 L 51.0,67.99803921568628 L 50.0,67.99803921568628 L 49.0,67.99803921568628 L 48.0,67.99803921568628 L 47.0,67.99803921568628 L 46.0,67.99803921568628 L 45.0,67.99803921568628 L 44.0,67.99803921568628 L 43.0,67.99803921568628 L 42.0,67.99803921568628 L 41.0,67.99803921568628 L 40.0,67.99803921568628 L 39.0,67.99803921568628 L 38.0,67.99803921568628 L 37.0,67.99803921568628 L 36.0,67.99803921568628 L 35.0,67.99803921568628 L 34.0,67.99803921568628 L 33.0,67.99803921568628 L 32.0,67.99803921568628 L 31.0,67.99803921568628 L 30.0,67.99803921568628 L 29.0,67.99803921568628 L 28.0,67.99803921568628 L 27.0,67.99803921568628 L 26.0,67.99803921568628 L 25.0,67.99803921568628 L 24.0,67.99803921568628 L 23.0,67.99803921568628 L 22.0,67.99803921568628 L 21.0,67.99803921568628 L 20.0,67.99803921568628 L 19.0,67.99803921568628 L 18.0,67.99803921568628 L 17.998039215686276,68.0 L 17.998039215686276,69.0 L 17.998039215686276,70.0 L 17.998039215686276,71.0 L 17.998039215686276,72.0 L 17.998039215686276,73.0 L 17.998039215686276,74.0 L 17.998039215686276,75.0 L 17.998039215686276,76.0 L 17.998039215686276,77.0 L 17.998039215686276,78.0 L 17.998039215686276,79.0 L 17.998039215686276,80.0 L 17.998039215686276,81.0 L 17.998039215686276,82.0 L 17.998039215686276,83.0 L 17.998039215686276,84.0 L 17.998039215686276,85.0 L 17.998039215686276,86.0 L 17.998039215686276,87.0 L 17.998039215686276,88.0 L 17.998039215686276,89.0 L 17.998039215686276,90.0 L 17.998039215686276,91.0 L 17.998039215686276,92.0 L 17.998039215686276,93.0 L 17.998039215686276,94.0 L 17.998039215686276,95.0 L 17.998039215686276,96.0 L 17.998039215686276,97.0 L 17.998039215686276,98.0 L 17.998039215686276,99.0 L 17.998039215686276,100.0 L 17.998039215686276,101.0 L 17.998039215686276,102.0 L 17.998039215686276,103.0 L 17.998039215686276,104.0 L 17.998039215686276,105.0 L 17.998039215686276,106.0 L 17.998039215686276,107.0 L 17.998039215686276,108.0 L 18.0,108.00196078431372 L 19.0,108.00196078431372 L 20.0,108.00196078431372 L 21.0,108.00196078431372 L 22.0,108.00196078431372 L 23.0,108.00196078431372 L 24.0,108.00196078431372 L 25.0,108.00196078431372 L 26.0,108.00196078431372 L 27.0,108.00196078431372 L 28.0,108.00196078431372 L 29.0,108.00196078431372 L 30.0,108.00196078431372 L 31.0,108.00196078431372 L 32.0,108.00196078431372 L 33.0,108.00196078431372 L 34.0,108.00196078431372 L 35.0,108.00196078431372 L 36.0,108.00196078431372 L 37.0,108.00196078431372 L 38.0,108.00196078431372 L 39.0,108.00196078431372 L 40.0,108.00196078431372 L 41.0,108.00196078431372 L 42.0,108.00196078431372 L 43.0,108.00196078431372 L 44.0,108.00196078431372 L 45.0,108.00196078431372 L 46.0,108.00196078431372 L 47.0,108.00196078431372 L 48.0,108.00196078431372 L 49.0,108.00196078431372 L 50.0,108.00196078431372 L 51.0,108.00196078431372 L 52.0,108.00196078431372 L 53.0,108.00196078431372 L 54.0,108.00196078431372 L 55.0,108.00196078431372 L 56.0,108.00196078431372 L 57.0,108.00196078431372 L 58.0,108.00196078431372 L 59.0,108.00196078431372 L 60.0,108.00196078431372 L 61.0,108.00196078431372 L 62.0,108.00196078431372 L 63.0,108.00196078431372 L 64.0,108.00196078431372 L 65.0,108.00196078431372 L 66.0,108.00196078431372 L 67.0,108.00196078431372 L 68.0,108.00196078431372 L 69.0,108.00196078431372 L 70.0,108.00196078431372 L 71.0,108.00196078431372 L 72.0,108.00196078431372 L 73.0,108.00196078431372 L 74.0,108.00196078431372 L 75.0,108.00196078431372 L 76.0,108.00196078431372 L 77.0,108.00196078431372 L 78.0,108.00196078431372 L 79.0,108.00196078431372 L 80.0,108.00196078431372 L 81.0,108.00196078431372 L 82.0,108.00196078431372 L 83.0,108.00196078431372 L 84.0,108.00196078431372 L 85.0,108.00196078431372 L 86.0,108.00196078431372 L 87.0,108.00196078431372 L 88.0,108.00196078431372 L 89.0,108.00196078431372 L 90.0,108.00196078431372 L 91.0,108.00196078431372 L 92.0,108.00196078431372 L 93.0,108.00196078431372 L 94.0,108.00196078431372 L 95.0,108.00196078431372 L 96.0,108.00196078431372 L 97.0,108.00196078431372 L 98.0,108.00196078431372 L 99.0,108.00196078431372 L 100.0,108.00196078431372 L 101.0,108.00196078431372 L 102.0,108.00196078431372 L 103.0,108.00196078431372 L 104.0,108.00196078431372 L 105.0,108.00196078431372 L 106.0,108.00196078431372 L 107.0,108.00196078431372 L 108.0,108.00196078431372 L 109.0,108.00196078431372 L 110.0,108.00196078431372 L 111.0,108.00196078431372 L 112.0,108.00196078431372 L 113.0,108.00196078431372 L 114.0,108.00196078431372 L 115.0,108.00196078431372 L 116.0,108.00196078431372 L 117.0,108.00196078431372 L 118.0,108.00196078431372 L 119.0,108.00196078431372 L 120.0,108.00196078431372 L 121.0,108.00196078431372 L 122.0,108.00196078431372 L 123.0,108.00196078431372 L 124.0,108.00196078431372 L 125.0,108.00196078431372 L 126.0,108.00196078431372 L 127.0,108.00196078431372 L 128.0,108.00196078431372 L 129.0,108.00196078431372 L 130.0,108.00196078431372 L 131.0,108.00196078431372 L 132.0,108.00196078431372 L 133.0,108.00196078431372 L 134.0,108.00196078431372 L 135.0,108.00196078431372 L 136.0,108.00196078431372 L 137.0,108.00196078431372 L 138.0,108.00196078431372 L 139.0,108.00196078431372 L 140.0,108.00196078431372 L 141.0,108.00196078431372 L 142.0,108.00196078431372 L 143.0,108.00196078431372 L 144.0,108.00196078431372 L 145.0,108.00196078431372 L 146.0,108.00196078431372 L 147.0,108.00196078431372 L 148.0,108.00196078431372 L 149.0,108.00196078431372 L 150.0,108.00196078431372 L 151.0,108.00196078431372 L 152.0,108.00196078431372 L 152.00196078431372,108.0 L 152.00196078431372,107.0 L 152.00196078431372,106.0 L 152.00196078431372,105.0 L 152.00196078431372,104.0 L 152.00196078431372,103.0 L 152.00196078431372,102.0 L 152.00196078431372,101.0 L 152.00196078431372,100.0 L 153.0,99.00196078431372 L 154.0,99.00196078431372 L 155.0,99.00196078431372 L 156.0,99.00196078431372 L 156.99803921568628,100.0 L 156.0,100.99803921568628 L 155.99803921568628,101.0 L 155.99803921568628,102.0 L 155.99803921568628,103.0 L 155.99803921568628,104.0 L 155.99803921568628,105.0 L 155.99803921568628,106.0 L 155.99803921568628,107.0 L 155.99803921568628,108.0 L 155.99803921568628,109.0 L 155.99803921568628,110.0 L 155.99803921568628,111.0 L 155.0,111.99803921568628 Z" fill="white" stroke="blue" stroke-width="2" /><path d="M 54.0,102.99803921568628 L 53.0,102.99803921568628 L 52.0,102.99803921568628 L 51.001960784313724,102.0 L 51.0,101.99803921568628 L 50.001960784313724,101.0 L 50.001960784313724,100.0 L 50.0,99.99803921568628 L 49.001960784313724,99.0 L 49.001960784313724,98.0 L 49.001960784313724,97.0 L 49.001960784313724,96.0 L 49.0,95.99803921568628 L 48.001960784313724,95.0 L 48.001960784313724,94.0 L 48.001960784313724,93.0 L 48.001960784313724,92.0 L 48.001960784313724,91.0 L 48.0,90.99803921568628 L 47.998039215686276,91.0 L 47.0,91.99803921568628 L 46.998039215686276,92.0 L 46.998039215686276,93.0 L 46.0,93.99803921568628 L 45.998039215686276,94.0 L 45.998039215686276,95.0 L 45.0,95.99803921568628 L 44.998039215686276,96.0 L 44.998039215686276,97.0 L 44.0,97.99803921568628 L 43.998039215686276,98.0 L 43.998039215686276,99.0 L 43.0,99.99803921568628 L 42.998039215686276,100.0 L 42.998039215686276,101.0 L 42.0,101.99803921568628 L 41.998039215686276,102.0 L 41.0,102.99803921568628 L 40.0,102.99803921568628 L 39.001960784313724,102.0 L 39.001960784313724,101.0 L 39.0,100.99803921568628 L 38.001960784313724,100.0 L 38.001960784313724,99.0 L 38.0,98.99803921568628 L 37.001960784313724,98.0 L 37.001960784313724,97.0 L 37.001960784313724,96.0 L 37.0,95.99803921568628 L 36.001960784313724,95.0 L 36.0,94.99803921568628 L 35.001960784313724,94.0 L 35.001960784313724,93.0 L 35.0,92.99803921568628 L 34.001960784313724,92.0 L 34.001960784313724,91.0 L 34.001960784313724,90.0 L 34.0,89.99803921568628 L 33.998039215686276,90.0 L 33.998039215686276,91.0 L 33.998039215686276,92.0 L 33.0,92.99803921568628 L 32.998039215686276,93.0 L 32.998039215686276,94.0 L 32.998039215686276,95.0 L 32.998039215686276,96.0 L 32.0,96.99803921568628 L 31.998039215686276,97.0 L 31.998039215686276,98.0 L 31.998039215686276,99.0 L 31.998039215686276,100.0 L 31.998039215686276,101.0 L 31.0,101.99803921568628 L 30.998039215686276,102.0 L 30.0,102.99803921568628 L 29.0,102.99803921568628 L 28.0,102.99803921568628 L 27.0,102.99803921568628 L 26.001960784313727,102.0 L 26.001960784313727,101.0 L 26.001960784313727,100.0 L 26.001960784313727,99.0 L 26.001960784313727,98.0 L 27.0,97.00196078431372 L 27.001960784313727,97.0 L 27.001960784313727,96.0 L 27.001960784313727,95.0 L 27.001960784313727,94.0 L 27.001960784313727,93.0 L 28.0,92.00196078431372 L 28.001960784313727,92.0 L 28.001960784313727,91.0 L 28.001960784313727,90.0 L 28.001960784313727,89.0 L 29.0,88.00196078431372 L 29.001960784313727,88.0 L 29.001960784313727,87.0 L 29.001960784313727,86.0 L 29.001960784313727,85.0 L 30.0,84.00196078431372 L 30.001960784313727,84.0 L 30.001960784313727,83.0 L 30.001960784313727,82.0 L 30.001960784313727,81.0 L 31.0,80.00196078431372 L 31.001960784313727,80.0 L 31.001960784313727,79.0 L 31.001960784313727,78.0 L 31.001960784313727,77.0 L 32.0,76.00196078431372 L 33.0,76.00196078431372 L 33.998039215686276,77.0 L 33.998039215686276,78.0 L 34.0,78.00196078431372 L 34.998039215686276,79.0 L 34.998039215686276,80.0 L 35.0,80.00196078431372 L 35.998039215686276,81.0 L 35.998039215686276,82.0 L 36.0,82.00196078431372 L 36.998039215686276,83.0 L 36.998039215686276,84.0 L 36.998039215686276,85.0 L 37.0,85.00196078431372 L 37.998039215686276,86.0 L 38.0,86.00196078431372 L 38.998039215686276,87.0 L 38.998039215686276,88.0 L 38.998039215686276,89.0 L 39.0,89.00196078431372 L 39.998039215686276,90.0 L 39.998039215686276,91.0 L 40.0,91.00196078431372 L 40.998039215686276,92.0 L 41.0,92.00196078431372 L 41.001960784313724,92.0 L 41.001960784313724,91.0 L 42.0,90.00196078431372 L 42.001960784313724,90.0 L 42.001960784313724,89.0 L 43.0,88.00196078431372 L 43.001960784313724,88.0 L 43.001960784313724,87.0 L 43.001960784313724,86.0 L 44.0,85.00196078431372 L 44.001960784313724,85.0 L 44.001960784313724,84.0 L 45.0,83.00196078431372 L 45.001960784313724,83.0 L 45.001960784313724,82.0 L 46.0,81.00196078431372 L 46.001960784313724,81.0 L 46.001960784313724,80.0 L 47.0,79.00196078431372 L 47.001960784313724,79.0 L 47.001960784313724,78.0 L 47.001960784313724,77.0 L 48.0,76.00196078431372 L 49.0,76.00196078431372 L 49.998039215686276,77.0 L 49.998039215686276,78.0 L 49.998039215686276,79.0 L 50.0,79.00196078431372 L 50.998039215686276,80.0 L 50.998039215686276,81.0 L 50.998039215686276,82.0 L 51.0,82.00196078431372 L 51.998039215686276,83.0 L 51.998039215686276,84.0 L 51.998039215686276,85.0 L 51.998039215686276,86.0 L 52.0,86.00196078431372 L 52.998039215686276,87.0 L 52.998039215686276,88.0 L 52.998039215686276,89.0 L 52.998039215686276,90.0 L 52.998039215686276,91.0 L 53.0,91.00196078431372 L 53.998039215686276,92.0 L 53.998039215686276,93.0 L 53.998039215686276,94.0 L 53.998039215686276,95.0 L 54.0,95.00196078431372 L 54.998039215686276,96.0 L 54.998039215686276,97.0 L 54.998039215686276,98.0 L 55.0,98.00196078431372 L 55.998039215686276,99.0 L 56.0,99.00196078431372 L 57.0,99.00196078431372 L 58.0,99.00196078431372 L 59.0,99.00196078431372 L 59.001960784313724,99.0 L 59.0,98.99803921568628 L 58.001960784313724,98.0 L 58.0,97.99803921568628 L 57.001960784313724,97.0 L 57.0,96.99803921568628 L 56.001960784313724,96.0 L 56.0,95.99803921568628 L 55.001960784313724,95.0 L 55.001960784313724,94.0 L 55.001960784313724,93.0 L 55.0,92.99803921568628 L 54.001960784313724,92.0 L 54.001960784313724,91.0 L 54.001960784313724,90.0 L 54.001960784313724,89.0 L 54.001960784313724,88.0 L 54.001960784313724,87.0 L 54.001960784313724,86.0 L 55.0,85.00196078431372 L 55.001960784313724,85.0 L 55.001960784313724,84.0 L 55.001960784313724,83.0 L 56.0,82.00196078431372 L 56.001960784313724,82.0 L 56.001960784313724,81.0 L 57.0,80.00196078431372 L 57.001960784313724,80.0 L 58.0,79.00196078431372 L 58.001960784313724,79.0 L 59.0,78.00196078431372 L 59.001960784313724,78.0 L 60.0,77.00196078431372 L 61.0,77.00196078431372 L 61.001960784313724,77.0 L 62.0,76.00196078431372 L 63.0,76.00196078431372 L 63.001960784313724,76.0 L 64.0,75.00196078431372 L 65.0,75.00196078431372 L 66.0,75.00196078431372 L 67.0,75.00196078431372 L 68.0,75.00196078431372 L 69.0,75.00196078431372 L 70.0,75.00196078431372 L 70.99803921568628,76.0 L 71.0,76.00196078431372 L 72.0,76.00196078431372 L 73.0,76.00196078431372 L 73.99803921568628,77.0 L 74.0,77.00196078431372 L 74.99803921568628,78.0 L 75.0,78.00196078431372 L 75.99803921568628,79.0 L 76.0,79.00196078431372 L 77.0,79.00196078431372 L 77.99803921568628,80.0 L 77.99803921568628,81.0 L 78.0,81.00196078431372 L 78.99803921568628,82.0 L 79.0,82.00196078431372 L 79.99803921568628,83.0 L 79.99803921568628,84.0 L 79.99803921568628,85.0 L 80.0,85.00196078431372 L 80.99803921568628,86.0 L 80.99803921568628,87.0 L 80.99803921568628,88.0 L 80.99803921568628,89.0 L 80.99803921568628,90.0 L 80.99803921568628,91.0 L 80.99803921568628,92.0 L 80.0,92.99803921568628 L 79.99803921568628,93.0 L 79.99803921568628,94.0 L 79.0,94.99803921568628 L 78.99803921568628,95.0 L 78.99803921568628,96.0 L 78.0,96.99803921568628 L 77.99803921568628,97.0 L 77.0,97.99803921568628 L 76.99803921568628,98.0 L 76.0,98.99803921568628 L 75.99803921568628,99.0 L 75.0,99.99803921568628 L 74.0,99.99803921568628 L 73.99803921568628,100.0 L 73.0,100.99803921568628 L 72.0,100.99803921568628 L 71.99803921568628,101.0 L 71.0,101.99803921568628 L 70.0,101.99803921568628 L 69.0,101.99803921568628 L 68.0,101.99803921568628 L 67.0,101.99803921568628 L 66.0,101.99803921568628 L 65.0,101.99803921568628 L 64.0,101.99803921568628 L 63.0,101.99803921568628 L 62.0,101.99803921568628 L 61.0,101.99803921568628 L 60.0,101.99803921568628 L 59.0,101.99803921568628 L 58.0,101.99803921568628 L 57.0,101.99803921568628 L 56.0,101.99803921568628 L 55.0,101.99803921568628 L 54.998039215686276,102.0 L 54.0,102.99803921568628 Z" fill="white" stroke="blue" stroke-width="2" /><path d="M 89.0,103.99803921568628 L 88.00196078431372,103.0 L 88.00196078431372,102.0 L 88.0,101.99803921568628 L 87.00196078431372,101.0 L 87.00196078431372,100.0 L 87.0,99.99803921568628 L 86.00196078431372,99.0 L 86.00196078431372,98.0 L 86.0,97.99803921568628 L 85.00196078431372,97.0 L 85.00196078431372,96.0 L 85.00196078431372,95.0 L 85.0,94.99803921568628 L 84.00196078431372,94.0 L 84.00196078431372,93.0 L 84.0,92.99803921568628 L 83.00196078431372,92.0 L 83.00196078431372,91.0 L 83.00196078431372,90.0 L 83.0,89.99803921568628 L 82.00196078431372,89.0 L 82.00196078431372,88.0 L 82.0,87.99803921568628 L 81.00196078431372,87.0 L 81.00196078431372,86.0 L 81.00196078431372,85.0 L 81.0,84.99803921568628 L 80.00196078431372,84.0 L 80.00196078431372,83.0 L 80.0,82.99803921568628 L 79.00196078431372,82.0 L 79.00196078431372,81.0 L 79.0,80.99803921568628 L 78.00196078431372,80.0 L 78.00196078431372,79.0 L 78.00196078431372,78.0 L 78.00196078431372,77.0 L 79.0,76.00196078431372 L 80.0,76.00196078431372 L 81.0,76.00196078431372 L 82.0,76.00196078431372 L 82.99803921568628,77.0 L 83.0,77.00196078431372 L 83.99803921568628,78.0 L 83.99803921568628,79.0 L 84.0,79.00196078431372 L 84.99803921568628,80.0 L 84.99803921568628,81.0 L 84.99803921568628,82.0 L 85.0,82.00196078431372 L 85.99803921568628,83.0 L 85.99803921568628,84.0 L 86.0,84.00196078431372 L 86.99803921568628,85.0 L 86.99803921568628,86.0 L 86.99803921568628,87.0 L 87.0,87.00196078431372 L 87.99803921568628,88.0 L 87.99803921568628,89.0 L 88.0,89.00196078431372 L 88.99803921568628,90.0 L 88.99803921568628,91.0 L 89.0,91.00196078431372 L 89.00196078431372,91.0 L 89.00196078431372,90.0 L 90.0,89.00196078431372 L 90.00196078431372,89.0 L 90.00196078431372,88.0 L 91.0,87.00196078431372 L 91.00196078431372,87.0 L 91.00196078431372,86.0 L 91.00196078431372,85.0 L 92.0,84.00196078431372 L 92.00196078431372,84.0 L 92.00196078431372,83.0 L 93.0,82.00196078431372 L 93.00196078431372,82.0 L 93.00196078431372,81.0 L 94.0,80.00196078431372 L 94.00196078431372,80.0 L 94.00196078431372,79.0 L 94.00196078431372,78.0 L 95.0,77.00196078431372 L 95.00196078431372,77.0 L 96.0,76.00196078431372 L 97.0,76.00196078431372 L 97.99803921568628,77.0 L 98.0,77.00196078431372 L 98.00196078431372,77.0 L 99.0,76.00196078431372 L 99.99803921568628,77.0 L 100.0,77.00196078431372 L 101.0,77.00196078431372 L 102.0,77.00196078431372 L 102.00196078431372,77.0 L 103.0,76.00196078431372 L 104.0,76.00196078431372 L 105.0,76.00196078431372 L 105.99803921568628,77.0 L 105.99803921568628,78.0 L 105.99803921568628,79.0 L 105.99803921568628,80.0 L 105.99803921568628,81.0 L 105.99803921568628,82.0 L 105.99803921568628,83.0 L 105.99803921568628,84.0 L 105.99803921568628,85.0 L 105.99803921568628,86.0 L 105.99803921568628,87.0 L 105.99803921568628,88.0 L 105.99803921568628,89.0 L 105.99803921568628,90.0 L 105.99803921568628,91.0 L 105.99803921568628,92.0 L 105.99803921568628,93.0 L 105.99803921568628,94.0 L 105.99803921568628,95.0 L 105.99803921568628,96.0 L 105.99803921568628,97.0 L 105.99803921568628,98.0 L 105.99803921568628,99.0 L 105.99803921568628,100.0 L 105.99803921568628,101.0 L 105.99803921568628,102.0 L 105.0,102.99803921568628 L 104.0,102.99803921568628 L 103.0,102.99803921568628 L 102.0,102.99803921568628 L 101.0,102.99803921568628 L 100.00196078431372,102.0 L 100.00196078431372,101.0 L 100.00196078431372,100.0 L 100.00196078431372,99.0 L 100.00196078431372,98.0 L 100.00196078431372,97.0 L 100.00196078431372,96.0 L 100.00196078431372,95.0 L 100.00196078431372,94.0 L 100.00196078431372,93.0 L 100.00196078431372,92.0 L 100.00196078431372,91.0 L 100.00196078431372,90.0 L 100.00196078431372,89.0 L 100.00196078431372,88.0 L 100.00196078431372,87.0 L 100.00196078431372,86.0 L 100.00196078431372,85.0 L 100.00196078431372,84.0 L 100.00196078431372,83.0 L 100.00196078431372,82.0 L 100.00196078431372,81.0 L 100.00196078431372,80.0 L 100.00196078431372,79.0 L 100.0,78.99803921568628 L 99.99803921568628,79.0 L 99.99803921568628,80.0 L 99.0,80.99803921568628 L 98.99803921568628,81.0 L 98.99803921568628,82.0 L 98.99803921568628,83.0 L 98.0,83.99803921568628 L 97.99803921568628,84.0 L 97.99803921568628,85.0 L 97.0,85.99803921568628 L 96.99803921568628,86.0 L 96.99803921568628,87.0 L 96.0,87.99803921568628 L 95.99803921568628,88.0 L 95.99803921568628,89.0 L 95.99803921568628,90.0 L 95.0,90.99803921568628 L 94.99803921568628,91.0 L 94.99803921568628,92.0 L 94.0,92.99803921568628 L 93.99803921568628,93.0 L 93.99803921568628,94.0 L 93.99803921568628,95.0 L 93.0,95.99803921568628 L 92.99803921568628,96.0 L 92.99803921568628,97.0 L 92.0,97.99803921568628 L 91.99803921568628,98.0 L 91.99803921568628,99.0 L 91.0,99.99803921568628 L 90.99803921568628,100.0 L 90.99803921568628,101.0 L 90.99803921568628,102.0 L 90.0,102.99803921568628 L 89.99803921568628,103.0 L 89.0,103.99803921568628 Z" fill="white" stroke="blue" stroke-width="2" /><path d="M 133.0,102.99803921568628 L 132.0,102.99803921568628 L 131.0,102.99803921568628 L 130.0,102.99803921568628 L 129.0,102.99803921568628 L 128.0,102.99803921568628 L 127.0,102.99803921568628 L 126.0,102.99803921568628 L 125.00196078431372,102.0 L 125.0,101.99803921568628 L 124.00196078431372,101.0 L 124.0,100.99803921568628 L 123.00196078431372,100.0 L 123.0,99.99803921568628 L 122.00196078431372,99.0 L 122.0,98.99803921568628 L 121.99803921568628,99.0 L 121.99803921568628,100.0 L 121.99803921568628,101.0 L 121.99803921568628,102.0 L 121.0,102.99803921568628 L 120.0,102.99803921568628 L 119.0,102.99803921568628 L 118.0,102.99803921568628 L 117.0,102.99803921568628 L 116.0,102.99803921568628 L 115.0,102.99803921568628 L 114.0,102.99803921568628 L 113.0,102.99803921568628 L 112.0,102.99803921568628 L 111.0,102.99803921568628 L 110.0,102.99803921568628 L 109.0,102.99803921568628 L 108.0,102.99803921568628 L 107.00196078431372,102.0 L 107.0,101.99803921568628 L 106.00196078431372,101.0 L 106.00196078431372,100.0 L 106.00196078431372,99.0 L 107.0,98.00196078431372 L 107.00196078431372,98.0 L 107.00196078431372,97.0 L 107.0,96.99803921568628 L 106.00196078431372,96.0 L 107.0,95.00196078431372 L 107.00196078431372,95.0 L 107.00196078431372,94.0 L 107.00196078431372,93.0 L 107.00196078431372,92.0 L 107.00196078431372,91.0 L 107.00196078431372,90.0 L 107.00196078431372,89.0 L 107.00196078431372,88.0 L 107.00196078431372,87.0 L 107.00196078431372,86.0 L 107.00196078431372,85.0 L 107.00196078431372,84.0 L 107.00196078431372,83.0 L 107.00196078431372,82.0 L 107.00196078431372,81.0 L 107.00196078431372,80.0 L 107.00196078431372,79.0 L 107.0,78.99803921568628 L 106.00196078431372,78.0 L 107.0,77.00196078431372 L 108.0,77.00196078431372 L 109.0,77.00196078431372 L 109.00196078431372,77.0 L 110.0,76.00196078431372 L 111.0,76.00196078431372 L 112.0,76.00196078431372 L 113.0,76.00196078431372 L 114.0,76.00196078431372 L 115.0,76.00196078431372 L 116.0,76.00196078431372 L 117.0,76.00196078431372 L 118.0,76.00196078431372 L 119.0,76.00196078431372 L 120.0,76.00196078431372 L 121.0,76.00196078431372 L 121.99803921568628,77.0 L 121.99803921568628,78.0 L 121.99803921568628,79.0 L 121.99803921568628,80.0 L 121.99803921568628,81.0 L 121.0,81.99803921568628 L 120.0,81.99803921568628 L 119.0,81.99803921568628 L 118.0,81.99803921568628 L 117.0,81.99803921568628 L 116.0,81.99803921568628 L 115.0,81.99803921568628 L 114.0,81.99803921568628 L 113.0,81.99803921568628 L 112.99803921568628,82.0 L 112.99803921568628,83.0 L 112.99803921568628,84.0 L 112.99803921568628,85.0 L 112.99803921568628,86.0 L 113.0,86.00196078431372 L 114.0,86.00196078431372 L 115.0,86.00196078431372 L 116.0,86.00196078431372 L 117.0,86.00196078431372 L 118.0,86.00196078431372 L 119.0,86.00196078431372 L 120.0,86.00196078431372 L 121.0,86.00196078431372 L 121.99803921568628,87.0 L 121.99803921568628,88.0 L 121.99803921568628,89.0 L 121.99803921568628,90.0 L 121.0,90.99803921568628 L 120.0,90.99803921568628 L 119.0,90.99803921568628 L 118.0,90.99803921568628 L 117.0,90.99803921568628 L 116.0,90.99803921568628 L 115.0,90.99803921568628 L 114.0,90.99803921568628 L 113.0,90.99803921568628 L 112.99803921568628,91.0 L 112.99803921568628,92.0 L 112.99803921568628,93.0 L 112.99803921568628,94.0 L 112.99803921568628,95.0 L 112.99803921568628,96.0 L 112.99803921568628,97.0 L 113.0,97.00196078431372 L 114.0,97.00196078431372 L 115.0,97.00196078431372 L 116.0,97.00196078431372 L 117.0,97.00196078431372 L 118.0,97.00196078431372 L 119.0,97.00196078431372 L 120.0,97.00196078431372 L 121.0,97.00196078431372 L 121.00196078431372,97.0 L 122.0,96.00196078431372 L 122.00196078431372,96.0 L 123.0,95.00196078431372 L 124.0,95.00196078431372 L 124.00196078431372,95.0 L 125.0,94.00196078431372 L 126.0,94.00196078431372 L 126.99803921568628,95.0 L 126.99803921568628,96.0 L 127.0,96.00196078431372 L 127.99803921568628,97.0 L 128.0,97.00196078431372 L 129.0,97.00196078431372 L 130.0,97.00196078431372 L 131.0,97.00196078431372 L 132.0,97.00196078431372 L 132.00196078431372,97.0 L 132.00196078431372,96.0 L 132.00196078431372,95.0 L 132.00196078431372,94.0 L 132.0,93.99803921568628 L 131.00196078431372,93.0 L 131.0,92.99803921568628 L 130.00196078431372,92.0 L 130.0,91.99803921568628 L 129.0,91.99803921568628 L 128.00196078431372,91.0 L 128.0,90.99803921568628 L 127.0,90.99803921568628 L 126.00196078431372,90.0 L 126.0,89.99803921568628 L 125.0,89.99803921568628 L 124.00196078431372,89.0 L 124.0,88.99803921568628 L 123.00196078431372,88.0 L 123.00196078431372,87.0 L 123.0,86.99803921568628 L 122.00196078431372,86.0 L 122.00196078431372,85.0 L 122.00196078431372,84.0 L 122.00196078431372,83.0 L 122.00196078431372,82.0 L 122.00196078431372,81.0 L 123.0,80.00196078431372 L 123.00196078431372,80.0 L 123.00196078431372,79.0 L 124.0,78.00196078431372 L 124.00196078431372,78.0 L 125.0,77.00196078431372 L 126.0,77.00196078431372 L 126.00196078431372,77.0 L 127.0,76.00196078431372 L 128.0,76.00196078431372 L 129.0,76.00196078431372 L 130.0,76.00196078431372 L 131.0,76.00196078431372 L 132.0,76.00196078431372 L 133.0,76.00196078431372 L 133.99803921568628,77.0 L 134.0,77.00196078431372 L 135.0,77.00196078431372 L 135.99803921568628,78.0 L 136.0,78.00196078431372 L 136.99803921568628,79.0 L 137.0,79.00196078431372 L 137.99803921568628,80.0 L 137.99803921568628,81.0 L 137.0,81.99803921568628 L 136.99803921568628,82.0 L 136.0,82.99803921568628 L 135.0,82.99803921568628 L 134.0,82.99803921568628 L 133.0,82.99803921568628 L 132.00196078431372,82.0 L 132.0,81.99803921568628 L 131.00196078431372,81.0 L 131.0,80.99803921568628 L 130.0,80.99803921568628 L 129.99803921568628,81.0 L 129.0,81.99803921568628 L 128.0,81.99803921568628 L 127.99803921568628,82.0 L 127.99803921568628,83.0 L 127.99803921568628,84.0 L 128.0,84.00196078431372 L 128.99803921568628,85.0 L 129.0,85.00196078431372 L 129.99803921568628,86.0 L 130.0,86.00196078431372 L 131.0,86.00196078431372 L 131.99803921568628,87.0 L 132.0,87.00196078431372 L 133.0,87.00196078431372 L 133.99803921568628,88.0 L 134.0,88.00196078431372 L 135.0,88.00196078431372 L 135.99803921568628,89.0 L 136.0,89.00196078431372 L 136.99803921568628,90.0 L 137.0,90.00196078431372 L 137.99803921568628,91.0 L 138.0,91.00196078431372 L 138.99803921568628,92.0 L 138.99803921568628,93.0 L 138.99803921568628,94.0 L 138.99803921568628,95.0 L 138.99803921568628,96.0 L 138.99803921568628,97.0 L 138.0,97.99803921568628 L 137.99803921568628,98.0 L 137.99803921568628,99.0 L 137.0,99.99803921568628 L 136.99803921568628,100.0 L 136.0,100.99803921568628 L 135.99803921568628,101.0 L 135.0,101.99803921568628 L 134.0,101.99803921568628 L 133.99803921568628,102.0 L 133.0,102.99803921568628 Z" fill="white" stroke="blue" stroke-width="2" /><path d="M 70.00196078431372,83.0 L 71.0,82.00196078431372 L 71.00196078431372,82.0 L 71.00196078431372,81.0 L 71.00196078431372,80.0 L 71.0,79.99803921568628 L 70.00196078431372,79.0 L 70.0,78.99803921568628 L 69.0,78.99803921568628 L 68.0,78.99803921568628 L 67.0,78.99803921568628 L 66.99803921568628,79.0 L 66.0,79.99803921568628 L 65.99803921568628,80.0 L 65.99803921568628,81.0 L 65.99803921568628,82.0 L 66.0,82.00196078431372 L 66.99803921568628,83.0 L 67.0,83.00196078431372 L 68.0,83.00196078431372 L 69.0,83.00196078431372 L 70.0,83.00196078431372 L 70.00196078431372,83.0 Z" fill="white" stroke="blue" stroke-width="2" /><path d="M 62.001960784313724,86.0 L 63.0,85.00196078431372 L 63.001960784313724,85.0 L 64.0,84.00196078431372 L 64.00196078431372,84.0 L 64.00196078431372,83.0 L 64.0,82.99803921568628 L 63.001960784313724,82.0 L 63.0,81.99803921568628 L 62.001960784313724,81.0 L 62.0,80.99803921568628 L 61.0,80.99803921568628 L 60.998039215686276,81.0 L 60.0,81.99803921568628 L 59.0,81.99803921568628 L 58.998039215686276,82.0 L 58.998039215686276,83.0 L 58.998039215686276,84.0 L 58.998039215686276,85.0 L 59.0,85.00196078431372 L 59.998039215686276,86.0 L 60.0,86.00196078431372 L 61.0,86.00196078431372 L 62.0,86.00196078431372 L 62.001960784313724,86.0 Z" fill="white" stroke="blue" stroke-width="2" /><path d="M 159.0,98.99803921568628 L 158.0,98.99803921568628 L 157.0,98.99803921568628 L 156.00196078431372,98.0 L 156.0,97.99803921568628 L 155.0,97.99803921568628 L 154.0,97.99803921568628 L 153.0,97.99803921568628 L 152.0,97.99803921568628 L 151.0,97.99803921568628 L 150.0,97.99803921568628 L 149.0,97.99803921568628 L 148.0,97.99803921568628 L 147.0,97.99803921568628 L 146.0,97.99803921568628 L 145.0,97.99803921568628 L 144.0,97.99803921568628 L 143.0,97.99803921568628 L 142.99803921568628,98.0 L 142.0,98.99803921568628 L 141.0,98.99803921568628 L 140.00196078431372,98.0 L 140.0,97.99803921568628 L 139.00196078431372,97.0 L 139.00196078431372,96.0 L 140.0,95.00196078431372 L 140.00196078431372,95.0 L 140.0,94.99803921568628 L 139.00196078431372,94.0 L 139.00196078431372,93.0 L 139.00196078431372,92.0 L 140.0,91.00196078431372 L 140.00196078431372,91.0 L 140.00196078431372,90.0 L 140.00196078431372,89.0 L 140.00196078431372,88.0 L 140.00196078431372,87.0 L 140.00196078431372,86.0 L 140.00196078431372,85.0 L 140.00196078431372,84.0 L 140.00196078431372,83.0 L 140.00196078431372,82.0 L 141.0,81.00196078431372 L 142.0,81.00196078431372 L 143.0,81.00196078431372 L 144.0,81.00196078431372 L 145.0,81.00196078431372 L 146.0,81.00196078431372 L 147.0,81.00196078431372 L 148.0,81.00196078431372 L 149.0,81.00196078431372 L 150.0,81.00196078431372 L 151.0,81.00196078431372 L 152.0,81.00196078431372 L 153.0,81.00196078431372 L 154.0,81.00196078431372 L 155.0,81.00196078431372 L 156.0,81.00196078431372 L 157.0,81.00196078431372 L 158.0,81.00196078431372 L 159.0,81.00196078431372 L 160.0,81.00196078431372 L 161.0,81.00196078431372 L 162.0,81.00196078431372 L 163.0,81.00196078431372 L 164.0,81.00196078431372 L 165.0,81.00196078431372 L 166.0,81.00196078431372 L 167.0,81.00196078431372 L 168.0,81.00196078431372 L 169.0,81.00196078431372 L 170.0,81.00196078431372 L 170.99803921568628,82.0 L 171.0,82.00196078431372 L 171.99803921568628,83.0 L 172.0,83.00196078431372 L 173.0,83.00196078431372 L 173.99803921568628,84.0 L 174.0,84.00196078431372 L 174.99803921568628,85.0 L 174.99803921568628,86.0 L 175.0,86.00196078431372 L 175.99803921568628,87.0 L 175.99803921568628,88.0 L 175.99803921568628,89.0 L 175.99803921568628,90.0 L 175.99803921568628,91.0 L 175.99803921568628,92.0 L 175.99803921568628,93.0 L 175.0,93.99803921568628 L 174.99803921568628,94.0 L 174.0,94.99803921568628 L 173.99803921568628,95.0 L 173.0,95.99803921568628 L 172.99803921568628,96.0 L 172.0,96.99803921568628 L 171.99803921568628,97.0 L 171.0,97.99803921568628 L 170.0,97.99803921568628 L 169.0,97.99803921568628 L 168.0,97.99803921568628 L 167.0,97.99803921568628 L 166.0,97.99803921568628 L 165.0,97.99803921568628 L 164.0,97.99803921568628 L 163.0,97.99803921568628 L 162.0,97.99803921568628 L 161.0,97.99803921568628 L 160.0,97.99803921568628 L 159.99803921568628,98.0 L 159.0,98.99803921568628 Z" fill="white" stroke="blue" stroke-width="2" /><path d="M 76.00196078431372,88.0 L 77.0,87.00196078431372 L 77.00196078431372,87.0 L 77.00196078431372,86.0 L 77.00196078431372,85.0 L 77.0,84.99803921568628 L 76.00196078431372,84.0 L 76.0,83.99803921568628 L 75.00196078431372,83.0 L 75.0,82.99803921568628 L 74.99803921568628,83.0 L 74.0,83.99803921568628 L 73.0,83.99803921568628 L 72.99803921568628,84.0 L 72.0,84.99803921568628 L 71.99803921568628,85.0 L 71.99803921568628,86.0 L 72.0,86.00196078431372 L 72.99803921568628,87.0 L 73.0,87.00196078431372 L 73.99803921568628,88.0 L 74.0,88.00196078431372 L 75.0,88.00196078431372 L 76.0,88.00196078431372 L 76.00196078431372,88.0 Z" fill="white" stroke="blue" stroke-width="2" /><path d="M 153.00196078431372,95.0 L 153.0,94.99803921568628 L 152.00196078431372,94.0 L 152.00196078431372,93.0 L 153.0,92.00196078431372 L 153.00196078431372,92.0 L 153.00196078431372,91.0 L 153.00196078431372,90.0 L 153.0,89.99803921568628 L 152.00196078431372,89.0 L 153.0,88.00196078431372 L 153.00196078431372,88.0 L 153.0,87.99803921568628 L 152.00196078431372,87.0 L 152.00196078431372,86.0 L 152.00196078431372,85.0 L 152.0,84.99803921568628 L 151.99803921568628,85.0 L 151.99803921568628,86.0 L 151.99803921568628,87.0 L 151.99803921568628,88.0 L 151.0,88.99803921568628 L 150.0,88.99803921568628 L 149.0,88.99803921568628 L 148.0,88.99803921568628 L 147.0,88.99803921568628 L 146.00196078431372,88.0 L 146.0,87.99803921568628 L 145.00196078431372,87.0 L 146.0,86.00196078431372 L 146.00196078431372,86.0 L 146.0,85.99803921568628 L 145.00196078431372,85.0 L 145.0,84.99803921568628 L 144.99803921568628,85.0 L 144.99803921568628,86.0 L 144.99803921568628,87.0 L 144.99803921568628,88.0 L 144.99803921568628,89.0 L 144.99803921568628,90.0 L 144.99803921568628,91.0 L 144.99803921568628,92.0 L 144.99803921568628,93.0 L 144.99803921568628,94.0 L 144.99803921568628,95.0 L 145.0,95.00196078431372 L 145.00196078431372,95.0 L 145.00196078431372,94.0 L 145.00196078431372,93.0 L 145.00196078431372,92.0 L 145.00196078431372,91.0 L 146.0,90.00196078431372 L 146.00196078431372,90.0 L 147.0,89.00196078431372 L 148.0,89.00196078431372 L 149.0,89.00196078431372 L 150.0,89.00196078431372 L 151.0,89.00196078431372 L 151.99803921568628,90.0 L 151.99803921568628,91.0 L 151.99803921568628,92.0 L 151.99803921568628,93.0 L 151.99803921568628,94.0 L 152.0,94.00196078431372 L 152.99803921568628,95.0 L 153.0,95.00196078431372 L 153.00196078431372,95.0 Z" fill="white" stroke="blue" stroke-width="2" /><path d="M 160.00196078431372,95.0 L 161.0,94.00196078431372 L 162.0,94.00196078431372 L 162.00196078431372,94.0 L 162.00196078431372,93.0 L 162.00196078431372,92.0 L 162.00196078431372,91.0 L 162.00196078431372,90.0 L 162.00196078431372,89.0 L 163.0,88.00196078431372 L 163.00196078431372,88.0 L 163.00196078431372,87.0 L 163.00196078431372,86.0 L 163.0,85.99803921568628 L 162.00196078431372,85.0 L 162.0,84.99803921568628 L 161.99803921568628,85.0 L 161.99803921568628,86.0 L 161.99803921568628,87.0 L 161.99803921568628,88.0 L 161.99803921568628,89.0 L 161.99803921568628,90.0 L 161.99803921568628,91.0 L 161.99803921568628,92.0 L 161.99803921568628,93.0 L 161.0,93.99803921568628 L 160.0,93.99803921568628 L 159.99803921568628,94.0 L 159.0,94.99803921568628 L 158.0,94.99803921568628 L 157.00196078431372,94.0 L 157.0,93.99803921568628 L 156.00196078431372,93.0 L 156.00196078431372,92.0 L 156.0,91.99803921568628 L 155.00196078431372,91.0 L 155.00196078431372,90.0 L 155.00196078431372,89.0 L 155.00196078431372,88.0 L 155.00196078431372,87.0 L 155.00196078431372,86.0 L 155.00196078431372,85.0 L 155.0,84.99803921568628 L 154.99803921568628,85.0 L 154.99803921568628,86.0 L 154.99803921568628,87.0 L 154.99803921568628,88.0 L 154.99803921568628,89.0 L 154.99803921568628,90.0 L 154.99803921568628,91.0 L 154.99803921568628,92.0 L 154.99803921568628,93.0 L 155.0,93.00196078431372 L 155.99803921568628,94.0 L 156.0,94.00196078431372 L 156.99803921568628,95.0 L 157.0,95.00196078431372 L 158.0,95.00196078431372 L 159.0,95.00196078431372 L 160.0,95.00196078431372 L 160.00196078431372,95.0 Z" fill="white" stroke="blue" stroke-width="2" /><path d="M 168.00196078431372,95.0 L 169.0,94.00196078431372 L 170.0,94.00196078431372 L 170.00196078431372,94.0 L 170.00196078431372,93.0 L 171.0,92.00196078431372 L 171.00196078431372,92.0 L 171.0,91.99803921568628 L 170.00196078431372,91.0 L 170.00196078431372,90.0 L 170.0,89.99803921568628 L 169.00196078431372,89.0 L 170.0,88.00196078431372 L 170.00196078431372,88.0 L 170.00196078431372,87.0 L 170.00196078431372,86.0 L 170.0,85.99803921568628 L 169.00196078431372,85.0 L 169.0,84.99803921568628 L 168.0,84.99803921568628 L 167.0,84.99803921568628 L 166.0,84.99803921568628 L 165.0,84.99803921568628 L 164.99803921568628,85.0 L 164.99803921568628,86.0 L 164.99803921568628,87.0 L 164.99803921568628,88.0 L 164.99803921568628,89.0 L 164.99803921568628,90.0 L 164.99803921568628,91.0 L 164.99803921568628,92.0 L 164.99803921568628,93.0 L 164.99803921568628,94.0 L 164.99803921568628,95.0 L 165.0,95.00196078431372 L 166.0,95.00196078431372 L 167.0,95.00196078431372 L 168.0,95.00196078431372 L 168.00196078431372,95.0 Z" fill="white" stroke="blue" stroke-width="2" /><path d="M 167.0,94.99803921568628 L 166.00196078431372,94.0 L 166.0,93.99803921568628 L 165.00196078431372,93.0 L 165.00196078431372,92.0 L 165.00196078431372,91.0 L 166.0,90.00196078431372 L 166.00196078431372,90.0 L 166.00196078431372,89.0 L 166.0,88.99803921568628 L 165.00196078431372,88.0 L 165.00196078431372,87.0 L 165.00196078431372,86.0 L 166.0,85.00196078431372 L 167.0,85.00196078431372 L 168.0,85.00196078431372 L 168.99803921568628,86.0 L 169.0,86.00196078431372 L 169.99803921568628,87.0 L 169.99803921568628,88.0 L 169.0,88.99803921568628 L 168.0,88.99803921568628 L 167.99803921568628,89.0 L 168.0,89.00196078431372 L 168.99803921568628,90.0 L 169.0,90.00196078431372 L 169.99803921568628,91.0 L 169.99803921568628,92.0 L 169.99803921568628,93.0 L 169.0,93.99803921568628 L 168.0,93.99803921568628 L 167.99803921568628,94.0 L 167.0,94.99803921568628 Z" fill="white" stroke="blue" stroke-width="2" /><path d="M 61.001960784313724,94.0 L 62.0,93.00196078431372 L 62.001960784313724,93.0 L 62.001960784313724,92.0 L 62.001960784313724,91.0 L 62.001960784313724,90.0 L 62.0,89.99803921568628 L 61.001960784313724,89.0 L 61.0,88.99803921568628 L 60.0,88.99803921568628 L 59.0,88.99803921568628 L 58.998039215686276,89.0 L 58.0,89.99803921568628 L 57.998039215686276,90.0 L 57.998039215686276,91.0 L 57.998039215686276,92.0 L 57.998039215686276,93.0 L 58.0,93.00196078431372 L 59.0,93.00196078431372 L 59.998039215686276,94.0 L 60.0,94.00196078431372 L 61.0,94.00196078431372 L 61.001960784313724,94.0 Z" fill="white" stroke="blue" stroke-width="2" /><path d="M 65.00196078431372,89.0 L 65.0,88.99803921568628 L 64.99803921568628,89.0 L 65.0,89.00196078431372 L 65.00196078431372,89.0 Z" fill="white" stroke="blue" stroke-width="2" /><path d="M 74.00196078431372,96.0 L 75.0,95.00196078431372 L 75.00196078431372,95.0 L 76.0,94.00196078431372 L 76.00196078431372,94.0 L 76.00196078431372,93.0 L 76.0,92.99803921568628 L 75.00196078431372,92.0 L 75.0,91.99803921568628 L 74.00196078431372,91.0 L 74.0,90.99803921568628 L 73.0,90.99803921568628 L 72.99803921568628,91.0 L 72.0,91.99803921568628 L 71.99803921568628,92.0 L 71.0,92.99803921568628 L 70.99803921568628,93.0 L 70.99803921568628,94.0 L 71.0,94.00196078431372 L 71.99803921568628,95.0 L 71.99803921568628,96.0 L 72.0,96.00196078431372 L 73.0,96.00196078431372 L 74.0,96.00196078431372 L 74.00196078431372,96.0 Z" fill="white" stroke="blue" stroke-width="2" /><path d="M 68.00196078431372,98.0 L 68.00196078431372,97.0 L 68.00196078431372,96.0 L 68.00196078431372,95.0 L 68.0,94.99803921568628 L 67.00196078431372,94.0 L 67.0,93.99803921568628 L 66.0,93.99803921568628 L 65.0,93.99803921568628 L 64.99803921568628,94.0 L 64.0,94.99803921568628 L 63.998039215686276,95.0 L 63.998039215686276,96.0 L 63.998039215686276,97.0 L 63.998039215686276,98.0 L 64.0,98.00196078431372 L 65.0,98.00196078431372 L 66.0,98.00196078431372 L 67.0,98.00196078431372 L 68.0,98.00196078431372 L 68.00196078431372,98.0 Z" fill="white" stroke="blue" stroke-width="2" /></svg>