<?xml version="1.0" encoding="UTF-8"?>
<svg version="1.1" xmlns="http://www.w3.org/2000/svg" width="180" height="180">
<path d="M0 0 C59.4 0 118.8 0 180 0 C180 59.4 180 118.8 180 180 C120.6 180 61.2 180 0 180 C0 120.6 0 61.2 0 0 Z " fill="#E3E3E1" transform="translate(0,0)"/>
<path d="M0 0 C0.33 2.31 0.66 4.62 1 7 C2.32 7.33 3.64 7.66 5 8 C5.33 5.36 5.66 2.72 6 0 C12.37302161 -0.66385642 16.03365205 1.01234536 21 5 C24.77821327 8.64760837 26.92433944 11.73398599 27.046875 17.0234375 C27.06085535 19.01563722 27.03319954 21.00802787 27 23 C30.3 23 33.6 23 37 23 C37.495 25.475 37.495 25.475 38 28 C35.69 28.33 33.38 28.66 31 29 C31.66 29.99 32.32 30.98 33 32 C36.08365871 32.2502157 36.08365871 32.2502157 39 32 C39.62139551 40.81000748 39.27853108 47.67022627 34 55 C32.09794648 56.92935573 30.20359973 58.39738202 28 60 C27.505 60.99 27.505 60.99 27 62 C30.3 62 33.6 62 37 62 C37 63.65 37 65.3 37 67 C30.4 67 23.8 67 17 67 C18.98 64.69 20.96 62.38 23 60 C25.70855126 54.97146601 26.47223383 50.63956198 26.375 45 C26.38660156 44.32710937 26.39820313 43.65421875 26.41015625 42.9609375 C26.37048934 36.11178415 24.00178169 30.86892347 19.8125 25.5625 C19.28269531 24.88316406 18.75289062 24.20382813 18.20703125 23.50390625 C17.80871094 23.00761719 17.41039062 22.51132813 17 22 C16.113125 22.185625 15.22625 22.37125 14.3125 22.5625 C11.14821189 22.98042484 9.05160358 22.80777742 6 22 C6 22.99 6 23.98 6 25 C7.03125 24.7525 8.0625 24.505 9.125 24.25 C13.96959406 23.93744554 15.34220296 24.89882425 19 28 C23.6994192 32.59498766 24.78421259 35.63427138 25 42 C24 43 24 43 21.78515625 43.1328125 C20.88667969 43.13023438 19.98820312 43.12765625 19.0625 43.125 C18.16660156 43.12757812 17.27070312 43.13015625 16.34765625 43.1328125 C14 43 14 43 12 42 C11.505 42.99 11.505 42.99 11 44 C8.86906094 42.93453047 7.63412443 41.70840281 6 40 C6.09539062 40.62648437 6.19078125 41.25296875 6.2890625 41.8984375 C6.39992188 42.71570313 6.51078125 43.53296875 6.625 44.375 C6.79902344 45.59316406 6.79902344 45.59316406 6.9765625 46.8359375 C6.98429687 47.55007812 6.99203125 48.26421875 7 49 C5 51 5 51 1.5 51.25 C-2 51 -2 51 -4 49 C-4.4375 45.625 -4.4375 45.625 -4 42 C-1.5 39.5625 -1.5 39.5625 1 38 C0.34 37.01 -0.32 36.02 -1 35 C-1.45890625 35.40992188 -1.9178125 35.81984375 -2.390625 36.2421875 C-3.00421875 36.78101563 -3.6178125 37.31984375 -4.25 37.875 C-4.85328125 38.40867188 -5.4565625 38.94234375 -6.078125 39.4921875 C-10.39298954 42.87742676 -13.50284631 43.30539743 -19 43 C-19.66 42.67 -20.32 42.34 -21 42 C-20.50754305 34.85937415 -18.85072182 30.92990853 -13.75 25.6875 C-9.96186668 23.36296365 -7.45253288 23.07181505 -3 23 C-1 24.4375 -1 24.4375 0 26 C0.33 24.68 0.66 23.36 1 22 C0.195625 21.7525 -0.60875 21.505 -1.4375 21.25 C-2.283125 20.8375 -3.12875 20.425 -4 20 C-4.66015625 17.921875 -4.66015625 17.921875 -5 16 C-5.48210938 16.433125 -5.96421875 16.86625 -6.4609375 17.3125 C-7.09257813 17.869375 -7.72421875 18.42625 -8.375 19 C-9.00148438 19.556875 -9.62796875 20.11375 -10.2734375 20.6875 C-12 22 -12 22 -14 22 C-14.268125 22.598125 -14.53625 23.19625 -14.8125 23.8125 C-15.98493467 25.97224808 -17.19369282 27.35790256 -19 29 C-21.98426227 23.96630461 -21.69918848 18.6736232 -21 13 C-18.83154406 7.08514919 -14.54280835 2.88920435 -9 0 C-5.6380145 -1.07994945 -3.43082671 -0.85770668 0 0 Z " fill="#E1E1E0" transform="translate(68,43)"/>
<path d="M0 0 C6.37302161 -0.66385642 10.03365205 1.01234536 15 5 C18.77821327 8.64760837 20.92433944 11.73398599 21.046875 17.0234375 C21.06085535 19.01563722 21.03319954 21.00802787 21 23 C24.3 23 27.6 23 31 23 C31.33 24.65 31.66 26.3 32 28 C29.69 28.33 27.38 28.66 25 29 C25.66 29.99 26.32 30.98 27 32 C30.08365871 32.2502157 30.08365871 32.2502157 33 32 C33.62139551 40.81000748 33.27853108 47.67022627 28 55 C26.09794648 56.92935573 24.20359973 58.39738202 22 60 C21.67 60.66 21.34 61.32 21 62 C24.3 62 27.6 62 31 62 C31 63.65 31 65.3 31 67 C24.4 67 17.8 67 11 67 C12.98 64.69 14.96 62.38 17 60 C19.70855126 54.97146601 20.47223383 50.63956198 20.375 45 C20.38660156 44.32710937 20.39820312 43.65421875 20.41015625 42.9609375 C20.36589838 35.31907839 17.45127229 30.09075592 12.625 24.375 C11.87476562 23.47523437 11.12453125 22.57546875 10.3515625 21.6484375 C7.99380166 18.99301915 5.52090616 16.49972208 3 14 C-0.59765421 9.5339465 -0.3223025 5.47914242 0 0 Z " fill="#343433" transform="translate(74,43)"/>
<path d="M0 0 C0.99 0.33 1.98 0.66 3 1 C3 1.66 3 2.32 3 3 C4.32 2.67 5.64 2.34 7 2 C7.99 3.485 7.99 3.485 9 5 C12.08365871 5.2502157 12.08365871 5.2502157 15 5 C15.62139551 13.81000748 15.27853108 20.67022627 10 28 C8.09794648 29.92935573 6.20359973 31.39738202 4 33 C3.67 33.66 3.34 34.32 3 35 C6.3 35 9.6 35 13 35 C13 36.65 13 38.3 13 40 C6.4 40 -0.2 40 -7 40 C-5.02 37.69 -3.04 35.38 -1 33 C1.70855126 27.97146601 2.47223383 23.63956198 2.375 18 C2.38660156 17.32710937 2.39820312 16.65421875 2.41015625 15.9609375 C2.37598262 10.06029044 0.58670939 6.17341878 -2 1 C-1.34 0.67 -0.68 0.34 0 0 Z " fill="#383837" transform="translate(92,70)"/>
<path d="M0 0 C0.6092396 6.82348355 -0.6239849 10.70959368 -5 16 C-7.18796396 18.20674477 -9.40814211 20.27644715 -12 22 C-12.66 22 -13.32 22 -14 22 C-14.268125 22.598125 -14.53625 23.19625 -14.8125 23.8125 C-15.98493467 25.97224808 -17.19369282 27.35790256 -19 29 C-21.98426227 23.96630461 -21.69918848 18.6736232 -21 13 C-18.83154406 7.08514919 -14.54280835 2.88920435 -9 0 C-5.6380145 -1.07994945 -3.43082671 -0.85770668 0 0 Z " fill="#383838" transform="translate(68,43)"/>
<path d="M0 0 C0.48984375 0.44214844 0.9796875 0.88429688 1.484375 1.33984375 C4.88221141 3.58220474 8.35013723 4.48749435 12.25 5.5625 C12.97574219 5.77068359 13.70148438 5.97886719 14.44921875 6.19335938 C18.09126278 7.22884248 21.74356254 8.19186367 25.421875 9.08984375 C29 10 29 10 31 11 C31 13.31 31 15.62 31 18 C26.96733429 19.63889124 24.27157007 18.24876679 20.375 16.6875 C18.65410156 16.01267578 18.65410156 16.01267578 16.8984375 15.32421875 C14 14 14 14 12 12 C11.67 13.32 11.34 14.64 11 16 C9.56260487 16.02712066 8.12506137 16.04645067 6.6875 16.0625 C5.48673828 16.07990234 5.48673828 16.07990234 4.26171875 16.09765625 C2 16 2 16 -1 15 C-2.56118428 14.93259135 -4.1250252 14.91485544 -5.6875 14.9375 C-6.49574219 14.94652344 -7.30398437 14.95554687 -8.13671875 14.96484375 C-8.75160156 14.97644531 -9.36648437 14.98804687 -10 15 C-8.74972873 12.21713815 -8.08014542 11.05959531 -5.5625 9.1875 C-2.26765231 6.37482514 -1.47288032 4.03104088 0 0 Z " fill="#DEDCDB" transform="translate(105,90)"/>
<path d="M0 0 C2 2 2 2 2.3125 5.8125 C2.17889756 9.70806581 1.61664102 11.97450882 -1 15 C-4.85459655 18.1427116 -7.87154696 19.89079487 -12.875 20.375 C-16 20 -16 20 -18 19 C-17.50521338 11.82559399 -15.9468185 7.65932401 -10.4375 2.6875 C-6.93405147 0.26203563 -4.19801665 -0.32292436 0 0 Z " fill="#3C3C3C" transform="translate(65,66)"/>
<path d="M0 0 C-0.51230249 6.83069983 -3.69528345 11.90967569 -8.6875 16.4375 C-13.05898547 19.3912064 -15.78894681 19.08404925 -21 19 C-21.36524283 14.4344646 -21.44670433 10.96785938 -19.5 6.75 C-13.54192596 0.19611856 -8.75365084 -2.04657114 0 0 Z " fill="#393939" transform="translate(93,91)"/>
<path d="M0 0 C6.09336425 -0.63472544 10.22664134 -0.08006467 15.26953125 3.5234375 C18.60485776 6.36938202 20.79421559 8.90785854 21.234375 13.3828125 C21.24831 15.60544471 21.17719166 17.7851042 21 20 C16.74987572 21.41670809 13.85069466 19.87054617 10 18 C4.50185675 14.40506019 1.88099535 10.1851553 0 4 C0 2.68 0 1.36 0 0 Z " fill="#383838" transform="translate(47,90)"/>
<path d="M0 0 C5.49234524 0.22417736 8.46394555 1.47796237 12.484375 5.25390625 C14.9272542 8.0682542 15.95340164 10.40231814 17 14 C16.6875 16.9375 16.6875 16.9375 16 19 C11.01295144 19.35480978 7.17080309 19.58540154 2.625 17.3125 C-0.01923144 14.98305801 -2.1616245 13.01493582 -4 10 C-3.90041109 6.0164435 -2.15568282 3.2803869 0 0 Z " fill="#3B3B3B" transform="translate(76,67)"/>
<path d="M0 0 C3.3 0 6.6 0 10 0 C10.33 1.32 10.66 2.64 11 4 C11.37125 3.34 11.7425 2.68 12.125 2 C14 0 14 0 17.1875 -0.25 C18.115625 -0.1675 19.04375 -0.085 20 0 C20 0.66 20 1.32 20 2 C18.35 2 16.7 2 15 2 C15 2.66 15 3.32 15 4 C15.804375 4.2475 16.60875 4.495 17.4375 4.75 C20 6 20 6 20.9375 7.875 C21.0131712 10.44782067 20.32168051 11.82311446 19 14 C18.34 13.67 17.68 13.34 17 13 C16.67 13.33 16.34 13.66 16 14 C14.68 13.34 13.36 12.68 12 12 C11.67 12.66 11.34 13.32 11 14 C10.34 14 9.68 14 9 14 C9 13.34 9 12.68 9 12 C6.03 12 3.06 12 0 12 C0 8.04 0 4.08 0 0 Z " fill="#C7C7C5" transform="translate(81,122)"/>
<path d="M0 0 C0.33 0.66 0.66 1.32 1 2 C1.66 2 2.32 2 3 2 C3 2.66 3 3.32 3 4 C3.61875 4.268125 4.2375 4.53625 4.875 4.8125 C7 6 7 6 9 9 C8.8125 11.5625 8.8125 11.5625 8 14 C7.01 14.66 6.02 15.32 5 16 C5.33 17.32 5.66 18.64 6 20 C6.99 19.67 7.98 19.34 9 19 C8.34 20.98 7.68 22.96 7 25 C4.86556608 22.94179587 2.9093834 20.88599847 1.0625 18.5625 C-0.98169728 15.91803683 -0.98169728 15.91803683 -3.5625 13.5 C-9 7.92307692 -9 7.92307692 -9 4 C-8.01 3.67 -7.02 3.34 -6 3 C-5.01 4.485 -5.01 4.485 -4 6 C-3.525625 5.195625 -3.05125 4.39125 -2.5625 3.5625 C-1 1 -1 1 0 0 Z " fill="#393939" transform="translate(83,46)"/>
<path d="M0 0 C0.33 0 0.66 0 1 0 C0.5954108 5.86654335 -0.16588594 9.31386059 -4 14 C-5.63654821 15.37013339 -7.29803595 16.7120272 -9 18 C-9.33 18.66 -9.66 19.32 -10 20 C-6.7 20 -3.4 20 0 20 C0 21.65 0 23.3 0 25 C-6.6 25 -13.2 25 -20 25 C-18.02 22.69 -16.04 20.38 -14 18 C-12.98642496 15.6725314 -11.98302491 13.34053551 -11 11 C-10.01 10.67 -9.02 10.34 -8 10 C-7.67 10.66 -7.34 11.32 -7 12 C-2.5991297 8.17819158 -1.19194469 5.52628901 0 0 Z " fill="#2F2F2D" transform="translate(105,85)"/>
<path d="M0 0 C1.2065625 0.33773437 2.413125 0.67546875 3.65625 1.0234375 C5.27081765 1.47401452 6.88540187 1.92453218 8.5 2.375 C9.68722656 2.70757812 9.68722656 2.70757812 10.8984375 3.046875 C14.74396748 4.11858008 18.58999426 5.15642265 22.46875 6.1015625 C26 7 26 7 28 8 C28 10.31 28 12.62 28 15 C26.4375 15.75 26.4375 15.75 24 16 C21.55335458 14.75269057 19.32073882 13.44821298 17 12 C15.35888488 11.07491281 13.71297602 10.15828083 12.0625 9.25 C11.29035156 8.82203125 10.51820312 8.3940625 9.72265625 7.953125 C9.15417969 7.63859375 8.58570312 7.3240625 8 7 C8 6.34 8 5.68 8 5 C7.13375 4.814375 7.13375 4.814375 6.25 4.625 C3.97664233 3.99351176 2.0746471 3.11141809 0 2 C0 1.34 0 0.68 0 0 Z " fill="#F1990A" transform="translate(108,93)"/>
<path d="M0 0 C0.66 0.33 1.32 0.66 2 1 C2 1.99 2 2.98 2 4 C2.66 4.33 3.32 4.66 4 5 C2.02 5.99 0.04 6.98 -2 8 C-2 11.63 -2 15.26 -2 19 C-3.299375 18.195625 -4.59875 17.39125 -5.9375 16.5625 C-10.72393782 13.8729778 -14.55196463 13.25943026 -20 13 C-20.33 14.32 -20.66 15.64 -21 17 C-21 15.35 -21 13.7 -21 12 C-21.99 11.67 -22.98 11.34 -24 11 C-22.68 10.67 -21.36 10.34 -20 10 C-20 9.34 -20 8.68 -20 8 C-19.443125 8.05800781 -18.88625 8.11601563 -18.3125 8.17578125 C-11.86043738 8.55723766 -8.01287243 7.02617582 -3 3 C-1.98289029 2.01740759 -0.97726415 1.02223029 0 0 Z " fill="#DFDFDF" transform="translate(67,77)"/>
<path d="M0 0 C0.61488281 0.08378906 1.22976562 0.16757813 1.86328125 0.25390625 C3.07564453 0.40666016 3.07564453 0.40666016 4.3125 0.5625 C5.11300781 0.66691406 5.91351563 0.77132812 6.73828125 0.87890625 C9.16817116 1.14755178 9.16817116 1.14755178 12 0 C13.48722742 1.9108619 14.9647404 3.82803755 16.4375 5.75 C17.06881836 6.55824219 17.06881836 6.55824219 17.71289062 7.3828125 C22.00298328 13.01141406 22.20005364 17.12619989 22.25 24.0625 C22.270625 24.78244141 22.29125 25.50238281 22.3125 26.24414062 C22.35181304 31.5366586 22.35181304 31.5366586 20.484375 33.99609375 C19.99453125 34.32738281 19.5046875 34.65867188 19 35 C19.33 32.36 19.66 29.72 20 27 C12.94348748 26.85024761 12.94348748 26.85024761 6 28 C6.61875 27.54625 7.2375 27.0925 7.875 26.625 C10.05919833 25.02891081 10.05919833 25.02891081 12 23 C14.31765729 22.28072705 16.65095874 21.6090107 19 21 C18.78803405 14.95897042 17.72258153 11.92727521 13.66796875 7.4453125 C9.59389796 3.91508723 6.32144389 3.79532908 1 4 C0.67 2.68 0.34 1.36 0 0 Z " fill="#E6E6E6" transform="translate(73,64)"/>
<path d="M0 0 C2 2 2 2 2 5 C4.475 5.495 4.475 5.495 7 6 C6.814375 6.78375 6.62875 7.5675 6.4375 8.375 C5.74037734 10.97089775 5.74037734 10.97089775 7 13 C4 12 4 12 2 9 C-3.05621148 9.26152818 -6.72342451 9.59994948 -10.61328125 13.19140625 C-13.54380712 17.01347238 -15.23864007 21.54983841 -17 26 C-17.66 25.67 -18.32 25.34 -19 25 C-17.54819689 14.3025034 -7.93217156 6.45641872 0 0 Z " fill="#ECECEB" transform="translate(63,58)"/>
<path d="M0 0 C1.98 0.495 1.98 0.495 4 1 C4 8.26 4 15.52 4 23 C2.35 23 0.7 23 -1 23 C-1.02887512 19.35418313 -1.04675585 15.70839537 -1.0625 12.0625 C-1.07087891 11.02158203 -1.07925781 9.98066406 -1.08789062 8.90820312 C-1.09272461 7.42416992 -1.09272461 7.42416992 -1.09765625 5.91015625 C-1.10289307 4.99371338 -1.10812988 4.07727051 -1.11352539 3.13305664 C-1 1 -1 1 0 0 Z " fill="#404143" transform="translate(117,69)"/>
<path d="M0 0 C1.8125 1.125 1.8125 1.125 3 3 C3.375 6.0625 3.375 6.0625 3 9 C-0.67996503 11.45331002 -2.65413172 11.39507893 -7 11 C-9 8 -9 8 -8.8125 4.9375 C-7.47741613 0.1106583 -4.61266905 -0.57658363 0 0 Z " fill="#2A2A28" transform="translate(59,122)"/>
<path d="M0 0 C1.7325 0.1546875 1.7325 0.1546875 3.5 0.3125 C5.80163882 3.76495824 5.84490322 5.25988713 5.5 9.3125 C3.5 11.3125 3.5 11.3125 0 11.5625 C-3.5 11.3125 -3.5 11.3125 -5.5 9.3125 C-5.75 5.8125 -5.75 5.8125 -5.5 2.3125 C-3.5 0.3125 -3.5 0.3125 0 0 Z " fill="#2F2F2D" transform="translate(69.5,82.6875)"/>
<path d="M0 0 C1.32 0 2.64 0 4 0 C4 8.91 4 17.82 4 27 C2.68 27 1.36 27 0 27 C0 18.09 0 9.18 0 0 Z " fill="#2F2E2F" transform="translate(123,67)"/>
<path d="M0 0 C3.375 0.6875 3.375 0.6875 7 2 C8.4375 4.625 8.4375 4.625 9 7 C8.21625 7.226875 7.4325 7.45375 6.625 7.6875 C3.78125 8.78125 3.78125 8.78125 2.6875 11.625 C2.460625 12.40875 2.23375 13.1925 2 14 C0.35 14 -1.3 14 -3 14 C-4.26649998 9.69390005 -3.7004691 7.1169252 -2 3 C-1.34 2.01 -0.68 1.02 0 0 Z " fill="#E5E5E5" transform="translate(68,50)"/>
<path d="M0 0 C3.375 -0.125 3.375 -0.125 7 0 C10.03333922 3.03333922 9.6646334 5.7743808 10 10 C9 11 9 11 6.93359375 11.09765625 C3.46679688 11.04882812 3.46679688 11.04882812 0 11 C0 7.37 0 3.74 0 0 Z " fill="#939391" transform="translate(134,122)"/>
<path d="M0 0 C2 2 2 2 2.16015625 3.91015625 C2.11181641 4.97556641 2.11181641 4.97556641 2.0625 6.0625 C2.041875 7.361875 2.02125 8.66125 2 10 C2.33 10.33 2.66 10.66 3 11 C3 8.03 3 5.06 3 2 C3.66 2 4.32 2 5 2 C5.05399736 3.45792884 5.09279177 4.91642712 5.125 6.375 C5.14820313 7.18710938 5.17140625 7.99921875 5.1953125 8.8359375 C5 11 5 11 3 13 C0 13.25 0 13.25 -3 13 C-5 11 -5 11 -5.1953125 8.8359375 C-5.17210938 8.02382812 -5.14890625 7.21171875 -5.125 6.375 C-5.10695313 5.55773437 -5.08890625 4.74046875 -5.0703125 3.8984375 C-5.04710938 3.27195312 -5.02390625 2.64546875 -5 2 C-3.35 1.34 -1.7 0.68 0 0 Z " fill="#757573" transform="translate(126,120)"/>
<path d="M0 0 C2.475 0.99 2.475 0.99 5 2 C5 8.93 5 15.86 5 23 C2.69 22.67 0.38 22.34 -2 22 C-1.67 22.33 -1.34 22.66 -1 23 C-1.99 23.33 -2.98 23.66 -4 24 C-4.99969637 19.9861815 -5.00447528 16.49094764 -4.6875 12.375 C-4.60886719 11.24835938 -4.53023438 10.12171875 -4.44921875 8.9609375 C-4 6 -4 6 -2 3 C-1.67 8.61 -1.34 14.22 -1 20 C-0.01 20 0.98 20 2 20 C2.08071788 17.20775927 2.14035408 14.41783434 2.1875 11.625 C2.21263672 10.8309375 2.23777344 10.036875 2.26367188 9.21875 C2.29004405 7.14413852 2.15486462 5.06899135 2 3 C1.01 2.34 0.02 1.68 -1 1 C-0.67 0.67 -0.34 0.34 0 0 Z " fill="#F4EEEE" transform="translate(111,69)"/>
<path d="M0 0 C-0.25030065 4.25511108 -0.66209323 6.54945765 -3.25 10 C-6 12 -6 12 -8.8125 11.8125 C-9.534375 11.544375 -10.25625 11.27625 -11 11 C-10.7128051 7.26646636 -10.46797134 4.67595861 -8.3125 1.5625 C-5.37563521 -0.4218681 -3.473489 -0.31577173 0 0 Z " fill="#686867" transform="translate(88,95)"/>
<path d="M0 0 C0.33 0.66 0.66 1.32 1 2 C1.66 2 2.32 2 3 2 C3 2.66 3 3.32 3 4 C3.61875 4.268125 4.2375 4.53625 4.875 4.8125 C7 6 7 6 9 9 C8.625 11.6875 8.625 11.6875 8 14 C4.33118845 13.29445932 1.29549466 11.72264494 -2 10 C-2.1953125 3.9453125 -2.1953125 3.9453125 -2 2 C-1.34 1.34 -0.68 0.68 0 0 Z " fill="#6D6D6D" transform="translate(83,46)"/>
<path d="M0 0 C1.32 0 2.64 0 4 0 C4.4247346 4.3322929 4.47048413 6.34962488 1.875 9.9375 C-1.43148796 12.30954571 -3.0239197 12.46233492 -7 12 C-6.6257368 6.63556087 -5.0040457 4.50353999 -1 1 C-0.67 0.67 -0.34 0.34 0 0 Z " fill="#6D6D6D" transform="translate(57,47)"/>
<path d="M0 0 C0 2.64 0 5.28 0 8 C-0.78375 7.979375 -1.5675 7.95875 -2.375 7.9375 C-4.98114961 7.81315937 -4.98114961 7.81315937 -7 9 C-7 7.35 -7 5.7 -7 4 C-12.60332217 6.09591149 -12.60332217 6.09591149 -17 10 C-17 6 -17 6 -15.390625 4.33203125 C-14.68421875 3.83058594 -13.9778125 3.32914063 -13.25 2.8125 C-12.55390625 2.30332031 -11.8578125 1.79414062 -11.140625 1.26953125 C-7.13125608 -1.10828791 -4.48180208 -1.12045052 0 0 Z " fill="#3B3B39" transform="translate(68,43)"/>
<path d="M0 0 C3.82097239 0.53069061 6.06171403 1.49701566 9 4 C8.625 6.4375 8.625 6.4375 8 9 C7.01 9.495 7.01 9.495 6 10 C5.34 8.02 4.68 6.04 4 4 C3.01 4 2.02 4 1 4 C1.33 4.66 1.66 5.32 2 6 C2.1875 9 2.1875 9 2 12 C0 14 0 14 -2.9375 14.25 C-6 14 -6 14 -9 12 C-8.67 11.34 -8.34 10.68 -8 10 C-7.401875 10.33 -6.80375 10.66 -6.1875 11 C-3.94613529 12.20787988 -3.94613529 12.20787988 -1 12 C-0.67 9.69 -0.34 7.38 0 5 C-3.3 4.34 -6.6 3.68 -10 3 C-10 2.67 -10 2.34 -10 2 C-2.25 1.875 -2.25 1.875 0 3 C0 2.01 0 1.02 0 0 Z " fill="#E9DFC7" transform="translate(136,96)"/>
<path d="M0 0 C1.32 0 2.64 0 4 0 C4 5.61 4 11.22 4 17 C2.68 17.33 1.36 17.66 0 18 C-1.82116003 16.17883997 -1.1323508 13.69328236 -1.13671875 11.2734375 C-1.13285156 10.52320312 -1.12898438 9.77296875 -1.125 9 C-1.12886719 8.24976562 -1.13273437 7.49953125 -1.13671875 6.7265625 C-1.12661053 1.12661053 -1.12661053 1.12661053 0 0 Z " fill="#3A3A39" transform="translate(110,72)"/>
<path d="M0 0 C-0.48377581 6.4100295 -0.48377581 6.4100295 -2.75 9 C-5.5806311 10.25805827 -7.08518324 9.89063845 -10 9 C-11 6 -11 6 -10.3125 3.4375 C-9 1 -9 1 -7.1875 -0.375 C-4.4719851 -1.1508614 -2.69201151 -0.74778098 0 0 Z " fill="#696969" transform="translate(62,71)"/>
<path d="M0 0 C0.33 0 0.66 0 1 0 C0.7609994 7.05051778 0.7609994 7.05051778 -1.26171875 9.57421875 C-2.8125 10.875 -2.8125 10.875 -6 13 C-6.639375 13.433125 -7.27875 13.86625 -7.9375 14.3125 C-10.96950105 15.32316702 -13.83392281 15.1217722 -17 15 C-17.33 14.34 -17.66 13.68 -18 13 C-17.113125 12.938125 -16.22625 12.87625 -15.3125 12.8125 C-11.25096703 11.81627493 -9.78955068 10.02201324 -7 7 C-6.34 7 -5.68 7 -5 7 C-4.34 5.02 -3.68 3.04 -3 1 C-2.01 1.33 -1.02 1.66 0 2 C0 1.34 0 0.68 0 0 Z " fill="#393939" transform="translate(66,71)"/>
<path d="M0 0 C0.99 0 1.98 0 3 0 C3.66 1.98 4.32 3.96 5 6 C5.66 6 6.32 6 7 6 C7.66 4.02 8.32 2.04 9 0 C9.99 0 10.98 0 12 0 C12 3.63 12 7.26 12 11 C11.34 11 10.68 11 10 11 C9.67 9.35 9.34 7.7 9 6 C8.34 7.32 7.68 8.64 7 10 C6.34 10 5.68 10 5 10 C4.34 9.01 3.68 8.02 3 7 C2.67 8.32 2.34 9.64 2 11 C1.34 11 0.68 11 0 11 C0 7.37 0 3.74 0 0 Z " fill="#2F2F2D" transform="translate(36,122)"/>
<path d="M0 0 C3.04718178 0.33857575 4.7747603 0.83107022 7.25 2.6875 C9.35261037 5.46594942 9.68795779 7.56753564 10 11 C6.50355037 11.31785906 4.602598 11.39644605 1.625 9.4375 C-0.54455002 6.18317497 -0.29451507 3.82869586 0 0 Z " fill="#6C6C6C" transform="translate(79,70)"/>
<path d="M0 0 C7.42857143 1 7.42857143 1 11 2 C11.33 1.34 11.66 0.68 12 0 C13.65 0.33 15.3 0.66 17 1 C14 3 14 3 10.625 4.375 C5.89615098 6.49482887 2.60107376 9.35753458 -1 13 C-1.02689216 11.52093108 -1.04634621 10.04172517 -1.0625 8.5625 C-1.07410156 7.73878906 -1.08570313 6.91507813 -1.09765625 6.06640625 C-1 4 -1 4 0 3 C0 2.01 0 1.02 0 0 Z " fill="#F1F1EF" transform="translate(49,40)"/>
<path d="M0 0 C0.61488281 0.08378906 1.22976562 0.16757813 1.86328125 0.25390625 C3.07564453 0.40666016 3.07564453 0.40666016 4.3125 0.5625 C5.11300781 0.66691406 5.91351563 0.77132812 6.73828125 0.87890625 C9.16817116 1.14755178 9.16817116 1.14755178 12 0 C13.54029406 1.88258163 15.05605156 3.77813816 16.5625 5.6875 C17.21895508 6.48317383 17.21895508 6.48317383 17.88867188 7.29492188 C20.00135919 10.00648118 21.04631799 11.39786611 20.77734375 14.89453125 C20.39255859 15.93673828 20.39255859 15.93673828 20 17 C19.72929688 16.41476563 19.45859375 15.82953125 19.1796875 15.2265625 C18.00858717 13.01620758 16.74224423 11.27714736 15.125 9.375 C14.63257812 8.78460938 14.14015625 8.19421875 13.6328125 7.5859375 C10.59472586 4.63506866 8.49625458 4.01654182 4.25 3.875 C3.1775 3.91625 2.105 3.9575 1 4 C0.67 2.68 0.34 1.36 0 0 Z " fill="#E2E2E2" transform="translate(73,64)"/>
<path d="M0 0 C3.875 1.75 3.875 1.75 5 4 C5.33 3.01 5.66 2.02 6 1 C9.3 1.66 12.6 2.32 16 3 C12 6 12 6 8.8125 7.5625 C5.90358047 8.69875811 5.90358047 8.69875811 5 11 C4.34 11 3.68 11 3 11 C2.49384702 9.73160474 1.99530901 8.46016898 1.5 7.1875 C1.2215625 6.47980469 0.943125 5.77210937 0.65625 5.04296875 C0 3 0 3 0 0 Z " fill="#DADAD9" transform="translate(74,83)"/>
<path d="M0 0 C0.66 0.33 1.32 0.66 2 1 C0.54846244 6.95130401 -2.66894807 11.93663585 -7.9296875 15.1953125 C-10.20236325 16.0786544 -11.82438825 16.20585373 -14.25 16.125 C-15.4875 16.08375 -16.725 16.0425 -18 16 C-17.6875 14.0625 -17.6875 14.0625 -17 12 C-13.30581799 10.768606 -10.7943739 11.35567236 -7 12 C-6.0165504 10.56542672 -5.03839079 9.12722594 -4.0625 7.6875 C-3.51722656 6.88699219 -2.97195312 6.08648437 -2.41015625 5.26171875 C-0.86162674 2.9741857 -0.86162674 2.9741857 0 0 Z " fill="#2C2C2C" transform="translate(90,94)"/>
<path d="M0 0 C3.84018663 1.50864475 5.80643252 3.52054814 8 7 C8.67207493 9.73999778 8.85766876 12.15337517 9 15 C8 16 8 16 4.4375 16.0625 C3.303125 16.041875 2.16875 16.02125 1 16 C1.66 15.34 2.32 14.68 3 14 C1.68 13.34 0.36 12.68 -1 12 C0.65 11.67 2.3 11.34 4 11 C3.54151632 6.8736469 3.15110598 4.74009215 0 2 C0 1.34 0 0.68 0 0 Z " fill="#363636" transform="translate(84,70)"/>
<path d="M0 0 C2.97 0 5.94 0 9 0 C9 0.66 9 1.32 9 2 C6.69 2 4.38 2 2 2 C2 2.99 2 3.98 2 5 C3.98 5 5.96 5 8 5 C8 5.66 8 6.32 8 7 C6.02 7 4.04 7 2 7 C2 7.66 2 8.32 2 9 C4.31 9 6.62 9 9 9 C9 9.66 9 10.32 9 11 C6.03 11 3.06 11 0 11 C0 7.37 0 3.74 0 0 Z " fill="#30302E" transform="translate(82,122)"/>
<path d="M0 0 C0.66 0 1.32 0 2 0 C2 1.65 2 3.3 2 5 C3.98 5 5.96 5 8 5 C8 3.35 8 1.7 8 0 C8.66 0 9.32 0 10 0 C10 3.96 10 7.92 10 12 C9.34 12 8.68 12 8 12 C8 10.35 8 8.7 8 7 C6.02 7 4.04 7 2 7 C2 8.65 2 10.3 2 12 C1.34 12 0.68 12 0 12 C0 8.04 0 4.08 0 0 Z " fill="#434341" transform="translate(109,122)"/>
<path d="M0 0 C0.94875 0.04125 1.8975 0.0825 2.875 0.125 C2.875 0.785 2.875 1.445 2.875 2.125 C1.225 2.125 -0.425 2.125 -2.125 2.125 C-2.125 2.785 -2.125 3.445 -2.125 4.125 C-1.320625 4.3725 -0.51625 4.62 0.3125 4.875 C2.875 6.125 2.875 6.125 3.75 8.1875 C3.811875 9.1465625 3.811875 9.1465625 3.875 10.125 C2.875 11.125 2.875 11.125 1.02734375 11.22265625 C-1.0234375 11.19010417 -3.07421875 11.15755208 -5.125 11.125 C-4.795 10.135 -4.465 9.145 -4.125 8.125 C-2.475 8.455 -0.825 8.785 0.875 9.125 C0.875 8.465 0.875 7.805 0.875 7.125 C-0.775 6.795 -2.425 6.465 -4.125 6.125 C-4.75 4.25 -4.75 4.25 -5.125 2.125 C-3.125 0.125 -3.125 0.125 0 0 Z " fill="#343432" transform="translate(98.125,121.875)"/>
<path d="M0 0 C0.99 0 1.98 0 3 0 C3.99 2.31 4.98 4.62 6 7 C6.99 4.69 7.98 2.38 9 0 C9.66 0 10.32 0 11 0 C10.01 3.63 9.02 7.26 8 11 C6.68 11.33 5.36 11.66 4 12 C3.3291288 10.3767313 2.66342971 8.75132422 2 7.125 C1.62875 6.22007812 1.2575 5.31515625 0.875 4.3828125 C0 2 0 2 0 0 Z " fill="#434341" transform="translate(63,122)"/>
<path d="M0 0 C1.32 0.33 2.64 0.66 4 1 C4.33 2.65 4.66 4.3 5 6 C4.01 6.391875 3.02 6.78375 2 7.1875 C-2.28734207 9.0111547 -6.11509624 11.44706324 -10 14 C-10 13.01 -10 12.02 -10 11 C-10.33 10.01 -10.66 9.02 -11 8 C-8.525 8.99 -8.525 8.99 -6 10 C-6 9.34 -6 8.68 -6 8 C-4 6.66666667 -2 5.33333333 0 4 C-0.99 3.67 -1.98 3.34 -3 3 C-2.01 2.67 -1.02 2.34 0 2 C0 1.34 0 0.68 0 0 Z " fill="#F2F2F0" transform="translate(131,49)"/>
<path d="M0 0 C0.79921875 0.11085938 1.5984375 0.22171875 2.421875 0.3359375 C3.32679687 0.47902344 3.32679687 0.47902344 4.25 0.625 C3.49432948 4.41130702 2.12402727 6.0291044 -0.75 8.625 C-0.75 7.305 -0.75 5.985 -0.75 4.625 C-1.61625 4.439375 -1.61625 4.439375 -2.5 4.25 C-4.77335767 3.61851176 -6.6753529 2.73641809 -8.75 1.625 C-5.5750906 -0.2828584 -3.64414789 -0.5359041 0 0 Z " fill="#414140" transform="translate(88.75,90.375)"/>
<path d="M0 0 C2.31 0.33 4.62 0.66 7 1 C6.34 1.66 5.68 2.32 5 3 C5.66 3.33 6.32 3.66 7 4 C6.85691406 4.56203125 6.71382813 5.1240625 6.56640625 5.703125 C5.98879098 8.04545453 5.45716693 10.39417659 4.9375 12.75 C4.67259766 13.94882813 4.67259766 13.94882813 4.40234375 15.171875 C4.26957031 15.77515625 4.13679688 16.3784375 4 17 C3.67 17 3.34 17 3 17 C2.92652344 16.07767578 2.92652344 16.07767578 2.8515625 15.13671875 C2.77679688 14.32847656 2.70203125 13.52023438 2.625 12.6875 C2.55539063 11.88699219 2.48578125 11.08648437 2.4140625 10.26171875 C2.10435574 7.72775559 2.10435574 7.72775559 0 5 C-0.125 2.3125 -0.125 2.3125 0 0 Z " fill="#DBDBDB" transform="translate(65,93)"/>
<path d="M0 0 C2.475 0.99 2.475 0.99 5 2 C5 8.93 5 15.86 5 23 C4.01 22.67 3.02 22.34 2 22 C2.02356567 21.15236084 2.02356567 21.15236084 2.04760742 20.28759766 C2.10987045 17.73349977 2.14896136 15.17956129 2.1875 12.625 C2.21263672 11.73554687 2.23777344 10.84609375 2.26367188 9.9296875 C2.27333984 9.07890625 2.28300781 8.228125 2.29296875 7.3515625 C2.3086792 6.56604004 2.32438965 5.78051758 2.34057617 4.97119141 C2.22818604 4.32069824 2.1157959 3.67020508 2 3 C1.01 2.34 0.02 1.68 -1 1 C-0.67 0.67 -0.34 0.34 0 0 Z " fill="#F8F7F8" transform="translate(111,69)"/>
<path d="M0 0 C2.31 0 4.62 0 7 0 C7.66 1.32 8.32 2.64 9 4 C8.34 4 7.68 4 7 4 C7 3.34 7 2.68 7 2 C5.35 2 3.7 2 2 2 C2 2.99 2 3.98 2 5 C3.65 5 5.3 5 7 5 C7 5.33 7 5.66 7 6 C5.35 6 3.7 6 2 6 C2 7.32 2 8.64 2 10 C3.98 10 5.96 10 8 10 C8 10.33 8 10.66 8 11 C5.36 11 2.72 11 0 11 C0 7.37 0 3.74 0 0 Z " fill="#292927" transform="translate(134,122)"/>
<path d="M0 0 C0.515625 0.763125 1.03125 1.52625 1.5625 2.3125 C4.55847644 5.61575607 6.85712514 6.48625726 11 8 C11 8.66 11 9.32 11 10 C11.9075 10.2475 12.815 10.495 13.75 10.75 C17.10351489 12.03981342 18.67708236 13.31971042 21 16 C16.4923533 15.46968862 13.58045212 13.74778884 10 11 C10 10.34 10 9.68 10 9 C5.545 8.01 5.545 8.01 1 7 C1 6.01 1 5.02 1 4 C0.34 3.67 -0.32 3.34 -1 3 C-0.67 2.01 -0.34 1.02 0 0 Z " fill="#F5D0A5" transform="translate(105,90)"/>
<path d="M0 0 C0.99 0 1.98 0 3 0 C3 2.64 3 5.28 3 8 C2.34 8 1.68 8 1 8 C1 7.34 1 6.68 1 6 C0.1646875 6.3403125 0.1646875 6.3403125 -0.6875 6.6875 C-3.96049601 7.12979676 -5.41983352 5.93512486 -8 4 C-8 3.34 -8 2.68 -8 2 C-6.865625 1.855625 -5.73125 1.71125 -4.5625 1.5625 C-1.19222799 1.38828522 -1.19222799 1.38828522 0 0 Z " fill="#D8D8D6" transform="translate(104,122)"/>
<path d="M0 0 C3.63 0.33 7.26 0.66 11 1 C11.33 2.65 11.66 4.3 12 6 C10.3745692 5.85904936 8.74965949 5.71207913 7.125 5.5625 C6.22007813 5.48128906 5.31515625 5.40007812 4.3828125 5.31640625 C2 5 2 5 0 4 C0 2.68 0 1.36 0 0 Z " fill="#383838" transform="translate(94,65)"/>
<path d="M0 0 C3.54971796 0.60852308 6.76693609 1.38346804 10 3 C10.33 3.99 10.66 4.98 11 6 C7.44706507 7.14947895 6.20023331 7.0868937 2.6875 5.5625 C1.800625 5.046875 0.91375 4.53125 0 4 C0 2.68 0 1.36 0 0 Z " fill="#DDDDDD" transform="translate(73,59)"/>
<path d="M0 0 C-1 3 -1 3 -3.58203125 4.31640625 C-4.64808594 4.72761719 -5.71414062 5.13882813 -6.8125 5.5625 C-11.09194897 7.20407712 -11.09194897 7.20407712 -15.19921875 9.21484375 C-17 10 -17 10 -20 9 C-19.16855469 8.51789063 -18.33710937 8.03578125 -17.48046875 7.5390625 C-16.39378906 6.90742187 -15.30710937 6.27578125 -14.1875 5.625 C-13.10855469 4.99851562 -12.02960938 4.37203125 -10.91796875 3.7265625 C-4.23319139 -0.22882116 -4.23319139 -0.22882116 0 0 Z " fill="#9C9C9A" transform="translate(136,56)"/>
<path d="M0 0 C0.33 0 0.66 0 1 0 C1.33 4.29 1.66 8.58 2 13 C0.35 13.33 -1.3 13.66 -3 14 C-3.33 11.36 -3.66 8.72 -4 6 C-3.01 6 -2.02 6 -1 6 C-0.67 4.02 -0.34 2.04 0 0 Z " fill="#EFEFEE" transform="translate(45,58)"/>
<path d="M0 0 C0.66 0.66 1.32 1.32 2 2 C1.73994556 5.51073496 -0.2589597 8.35265004 -2.01171875 11.31640625 C-3.09950825 13.16951801 -4.07029683 15.06311839 -5 17 C-5.625 15.1875 -5.625 15.1875 -6 13 C-5.34 12.01 -4.68 11.02 -4 10 C-4.7763932 6.9254644 -4.7763932 6.9254644 -7 5 C-6.21625 4.731875 -5.4325 4.46375 -4.625 4.1875 C-1.71885077 3.15185568 -1.71885077 3.15185568 0 0 Z " fill="#EBEBEA" transform="translate(75,90)"/>
<path d="M0 0 C5.75 0.875 5.75 0.875 8 2 C8 4.31 8 6.62 8 9 C6.4375 9.75 6.4375 9.75 4 10 C1.49713591 8.86915563 -0.67007722 7.47860484 -3 6 C0.32534757 4.89155081 2.62182575 5.15545644 6 6 C6.33 5.01 6.66 4.02 7 3 C4.69 2.34 2.38 1.68 0 1 C0 0.67 0 0.34 0 0 Z " fill="#E3AC52" transform="translate(128,99)"/>
<path d="M0 0 C1.96143041 0.20094165 3.91931791 0.43671253 5.875 0.6875 C6.96554688 0.81511719 8.05609375 0.94273438 9.1796875 1.07421875 C10.57574219 1.53248047 10.57574219 1.53248047 12 2 C12.66 3.65 13.32 5.3 14 7 C9.71 6.01 5.42 5.02 1 4 C0.67 2.68 0.34 1.36 0 0 Z " fill="#E7D5B5" transform="translate(108,90)"/>
<path d="M0 0 C1.65 0.33 3.3 0.66 5 1 C4.51309271 7.45152159 4.51309271 7.45152159 2.1875 9.9375 C0 11 0 11 -4 11 C-2.25 6.125 -2.25 6.125 0 5 C0 5.66 0 6.32 0 7 C0.66 6.67 1.32 6.34 2 6 C2.65555119 3.47266765 2.65555119 3.47266765 3 1 C1.68 1.33 0.36 1.66 -1 2 C-0.67 1.34 -0.34 0.68 0 0 Z " fill="#727272" transform="translate(57,70)"/>
<path d="M0 0 C1.4783226 2.95664519 1.06032783 5.74229737 1 9 C0.67 9 0.34 9 0 9 C0 7.35 0 5.7 0 4 C-5.60332217 6.09591149 -5.60332217 6.09591149 -10 10 C-10 6 -10 6 -8.3203125 4.296875 C-7.59585938 3.78640625 -6.87140625 3.2759375 -6.125 2.75 C-5.40570313 2.22921875 -4.68640625 1.7084375 -3.9453125 1.171875 C-2 0 -2 0 0 0 Z " fill="#3C3C3B" transform="translate(61,43)"/>
<path d="M0 0 C1.67542976 0.28604898 3.34385343 0.61781233 5 1 C5.625 2.875 5.625 2.875 6 5 C5.34 5.66 4.68 6.32 4 7 C1.375 6.625 1.375 6.625 -1 6 C-1.042721 4.33388095 -1.04063832 2.66617115 -1 1 C-0.67 0.67 -0.34 0.34 0 0 Z " fill="#D7D7D5" transform="translate(54,124)"/>
<path d="M0 0 C0.99 0.33 1.98 0.66 3 1 C3 1.66 3 2.32 3 3 C4.32 2.67 5.64 2.34 7 2 C7.33 3.32 7.66 4.64 8 6 C7.34 6 6.68 6 6 6 C5.67 6.99 5.34 7.98 5 9 C4.34 8.67 3.68 8.34 3 8 C2.67 8.66 2.34 9.32 2 10 C1.525625 8.88625 1.05125 7.7725 0.5625 6.625 C-0.25306463 4.73289006 -1.07856355 2.84287291 -2 1 C-1.34 0.67 -0.68 0.34 0 0 Z " fill="#414141" transform="translate(92,70)"/>
<path d="M0 0 C3.96 0.99 3.96 0.99 8 2 C7.67 2.66 7.34 3.32 7 4 C7.66 4.66 8.32 5.32 9 6 C2.6 7.23076923 2.6 7.23076923 -0.4375 6.0625 C-0.953125 5.711875 -1.46875 5.36125 -2 5 C-2 4.01 -2 3.02 -2 2 C-1.34 2 -0.68 2 0 2 C0 1.34 0 0.68 0 0 Z " fill="#3F3F3E" transform="translate(80,79)"/>
<path d="M0 0 C5.94 1.65 11.88 3.3 18 5 C14.29847322 5.92538169 13.36541838 6.08174162 10 5 C10 5.66 10 6.32 10 7 C9.34 7 8.68 7 8 7 C8 6.34 8 5.68 8 5 C7.13375 4.814375 7.13375 4.814375 6.25 4.625 C3.97664233 3.99351176 2.0746471 3.11141809 0 2 C0 1.34 0 0.68 0 0 Z " fill="#D99F3B" transform="translate(108,93)"/>
<path d="M0 0 C2.54200295 2.54200295 2.28716913 4.24224383 2.32226562 7.71679688 C2.31743164 8.81604492 2.31743164 8.81604492 2.3125 9.9375 C2.32861328 10.66646484 2.34472656 11.39542969 2.36132812 12.14648438 C2.36625069 17.51700102 2.36625069 17.51700102 0.48046875 20.00390625 C-0.00808594 20.33261719 -0.49664062 20.66132812 -1 21 C-0.9278125 20.32195312 -0.855625 19.64390625 -0.78125 18.9453125 C-0.14886291 12.60387527 0.12438222 6.37113353 0 0 Z " fill="#F3F3F3" transform="translate(93,78)"/>
<path d="M0 0 C-0.639375 0.12375 -1.27875 0.2475 -1.9375 0.375 C-2.618125 0.58125 -3.29875 0.7875 -4 1 C-4.33 1.66 -4.66 2.32 -5 3 C-7.32156597 3.40729228 -9.6568787 3.74438677 -12 4 C-12.66 2.68 -13.32 1.36 -14 0 C-12.42074025 -0.39180108 -10.83631206 -0.76280736 -9.25 -1.125 C-8.36828125 -1.33382812 -7.4865625 -1.54265625 -6.578125 -1.7578125 C-3.67124507 -2.03088304 -2.43338652 -1.53508028 0 0 Z " fill="#DADADA" transform="translate(113,72)"/>
<path d="M0 0 C0.33 0 0.66 0 1 0 C1 2.97 1 5.94 1 9 C1.66 9 2.32 9 3 9 C3 8.34 3 7.68 3 7 C3.66 7.33 4.32 7.66 5 8 C5.66 8 6.32 8 7 8 C6.1875 10.9375 6.1875 10.9375 5 14 C4.01 14.33 3.02 14.66 2 15 C0 13 0 13 -0.1953125 9.9609375 C-0.17210938 8.77757813 -0.14890625 7.59421875 -0.125 6.375 C-0.10695313 5.18648438 -0.08890625 3.99796875 -0.0703125 2.7734375 C-0.04710938 1.85820313 -0.02390625 0.94296875 0 0 Z " fill="#494947" transform="translate(95,83)"/>
<path d="M0 0 C2.475 0.99 2.475 0.99 5 2 C5.66 1.34 6.32 0.68 7 0 C7.33 2.97 7.66 5.94 8 9 C5.03 7.35 2.06 5.7 -1 4 C-0.67 2.68 -0.34 1.36 0 0 Z " fill="#DEDEDE" transform="translate(57,87)"/>
<path d="M0 0 C0.99 0 1.98 0 3 0 C3.33 5.61 3.66 11.22 4 17 C2.68 16.67 1.36 16.34 0 16 C0 10.72 0 5.44 0 0 Z " fill="#575557" transform="translate(109,73)"/>
<path d="M0 0 C0.66 0.33 1.32 0.66 2 1 C2.125 3.875 2.125 3.875 2 7 C0 9 0 9 -3.625 9.125 C-4.73875 9.08375 -5.8525 9.0425 -7 9 C-7.66 7.68 -8.32 6.36 -9 5 C-6 5 -6 5 -4 5.5625 C-1.80883384 6.22052993 -1.80883384 6.22052993 1 5 C0.67 3.35 0.34 1.7 0 0 Z " fill="#2D2D2B" transform="translate(73,85)"/>
<path d="M0 0 C0.33 0 0.66 0 1 0 C0.38461538 7.50769231 0.38461538 7.50769231 -1.5625 10 C-2.2740625 10.495 -2.2740625 10.495 -3 11 C-3.66 10.67 -4.32 10.34 -5 10 C-5 6.27136471 -4.08335776 4.12503664 -2 1 C-1.34 1.33 -0.68 1.66 0 2 C0 1.34 0 0.68 0 0 Z " fill="#2D2D2D" transform="translate(66,71)"/>
<path d="M0 0 C0.33 0.99 0.66 1.98 1 3 C-1.59886477 7.78191118 -4.69174618 10.81563848 -9 14 C-9.66 14 -10.32 14 -11 14 C-11 12 -11 12 -9.5625 10.5 C-9.046875 10.005 -8.53125 9.51 -8 9 C-7.67 8.34 -7.34 7.68 -7 7 C-5.68 7 -4.36 7 -3 7 C-3 6.01 -3 5.02 -3 4 C-2.34 4 -1.68 4 -1 4 C-0.67 2.68 -0.34 1.36 0 0 Z " fill="#272727" transform="translate(66,50)"/>
<path d="M0 0 C0.33 0 0.66 0 1 0 C1.22331199 1.58129029 1.42804644 3.16521089 1.625 4.75 C1.74101563 5.63171875 1.85703125 6.5134375 1.9765625 7.421875 C2.00207817 10.22859878 1.44843844 11.63384866 0 14 C-0.99 14 -1.98 14 -3 14 C-3.33 13.34 -3.66 12.68 -4 12 C-3.67 11.34 -3.34 10.68 -3 10 C-3.66 9.67 -4.32 9.34 -5 9 C-4.34 7.68 -3.68 6.36 -3 5 C-2.67 5 -2.34 5 -2 5 C-2 6.98 -2 8.96 -2 11 C-1.34 11 -0.68 11 0 11 C0 7.37 0 3.74 0 0 Z " fill="#CDCDCB" transform="translate(48,122)"/>
<path d="M0 0 C1.32 0 2.64 0 4 0 C3.25 6.75 3.25 6.75 1 9 C0.01 8.67 -0.98 8.34 -2 8 C-1.34 8 -0.68 8 0 8 C0 7.01 0 6.02 0 5 C-0.99 5.495 -0.99 5.495 -2 6 C-1.34 4.02 -0.68 2.04 0 0 Z " fill="#70706E" transform="translate(84,95)"/>
<path d="M0 0 C2.13586678 3.20380017 2.23132175 4.01939967 2.125 7.6875 C2.10695313 8.49574219 2.08890625 9.30398437 2.0703125 10.13671875 C2.03550781 11.05904297 2.03550781 11.05904297 2 12 C-0.475 11.01 -0.475 11.01 -3 10 C-2.01 6.7 -1.02 3.4 0 0 Z " fill="#CACAC8" transform="translate(73,124)"/>
<path d="M0 0 C1.32 0 2.64 0 4 0 C3.34 3.3 2.68 6.6 2 10 C1.01 10 0.02 10 -1 10 C-1.33 7.69 -1.66 5.38 -2 3 C-1.34 3 -0.68 3 0 3 C0 2.01 0 1.02 0 0 Z " fill="#F2F2F0" transform="translate(71,40)"/>
<path d="M0 0 C1.67542976 0.28604898 3.34385343 0.61781233 5 1 C4.67 2.65 4.34 4.3 4 6 C2.68 5.67 1.36 5.34 0 5 C-0.5625 3.0625 -0.5625 3.0625 -1 1 C-0.67 0.67 -0.34 0.34 0 0 Z " fill="#DADAD8" transform="translate(67,86)"/>
<path d="M0 0 C0.99 0.33 1.98 0.66 3 1 C3.33 2.98 3.66 4.96 4 7 C2.02 7 0.04 7 -2 7 C-2 3.89448334 -1.4606285 2.64738916 0 0 Z " fill="#737373" transform="translate(85,74)"/>
<path d="M0 0 C3.3 0.33 6.6 0.66 10 1 C9.01 1.66 8.02 2.32 7 3 C7.33 3.99 7.66 4.98 8 6 C2.25 4.125 2.25 4.125 0 3 C0 2.01 0 1.02 0 0 Z " fill="#E3991B" transform="translate(118,98)"/>
<path d="M0 0 C-5.625 4 -5.625 4 -9 4 C-9.33 3.01 -9.66 2.02 -10 1 C-4.25 -2.83333333 -4.25 -2.83333333 0 0 Z " fill="#323231" transform="translate(86,94)"/>
<path d="M0 0 C2.00720923 0.28674418 4.0085944 0.61866701 6 1 C5.67 2.98 5.34 4.96 5 7 C5.66 7.33 6.32 7.66 7 8 C5.02 8.99 5.02 8.99 3 10 C3.33 8.02 3.66 6.04 4 4 C3.01 4 2.02 4 1 4 C0.67 4.66 0.34 5.32 0 6 C-0.38218767 4.34385343 -0.71395102 2.67542976 -1 1 C-0.67 0.67 -0.34 0.34 0 0 Z " fill="#DCDCDA" transform="translate(41,87)"/>
<path d="M0 0 C1.32 0.33 2.64 0.66 4 1 C4 2.98 4 4.96 4 7 C4.99 7 5.98 7 7 7 C7.33 7.66 7.66 8.32 8 9 C7.01 10.32 6.02 11.64 5 13 C2.50476973 10.07081664 1.39436431 7.84505198 1 4 C1.33 3.01 1.66 2.02 2 1 C1.34 0.67 0.68 0.34 0 0 Z " fill="#444444" transform="translate(84,58)"/>
<path d="M0 0 C0.33 0 0.66 0 1 0 C1 2.97 1 5.94 1 9 C-3.625 11.125 -3.625 11.125 -7 10 C-6.34 9.67 -5.68 9.34 -5 9 C-4.67 8.01 -4.34 7.02 -4 6 C-3.01 6.33 -2.02 6.66 -1 7 C-0.67 4.69 -0.34 2.38 0 0 Z " fill="#D4D4D2" transform="translate(108,125)"/>
<path d="M0 0 C1.67542976 0.28604898 3.34385343 0.61781233 5 1 C5 2.98 5 4.96 5 7 C3.68 7 2.36 7 1 7 C1 5.35 1 3.7 1 2 C0.34 1.67 -0.32 1.34 -1 1 C-0.67 0.67 -0.34 0.34 0 0 Z " fill="#DDDDDB" transform="translate(110,120)"/>
<path d="M0 0 C3.3125 -0.25 3.3125 -0.25 7 0 C8.9375 2 8.9375 2 10 4 C8.68 4.33 7.36 4.66 6 5 C6 4.34 6 3.68 6 3 C4.02 3 2.04 3 0 3 C0 2.01 0 1.02 0 0 Z " fill="#CDCDCB" transform="translate(84,124)"/>
<path d="M0 0 C0.66 0.33 1.32 0.66 2 1 C0.63855967 6.19822672 -1.46730171 9.09543873 -5 13 C-5.66 12.67 -6.32 12.34 -7 12 C-6.57847656 11.38511719 -6.15695313 10.77023438 -5.72265625 10.13671875 C-4.90087891 8.92435547 -4.90087891 8.92435547 -4.0625 7.6875 C-3.51722656 6.88699219 -2.97195312 6.08648437 -2.41015625 5.26171875 C-0.86162674 2.9741857 -0.86162674 2.9741857 0 0 Z " fill="#242422" transform="translate(90,94)"/>
<path d="M0 0 C2.31 0.33 4.62 0.66 7 1 C7 1.33 7 1.66 7 2 C5.35 2 3.7 2 2 2 C2.33 2.99 2.66 3.98 3 5 C2.01 5 1.02 5 0 5 C-0.33 6.32 -0.66 7.64 -1 9 C-1 7.35 -1 5.7 -1 4 C-1.99 3.67 -2.98 3.34 -4 3 C-2.68 2.67 -1.36 2.34 0 2 C0 1.34 0 0.68 0 0 Z " fill="#EEEEED" transform="translate(47,85)"/>
<path d="M0 0 C0 2.64 0 5.28 0 8 C-0.66 8 -1.32 8 -2 8 C-2.33 9.32 -2.66 10.64 -3 12 C-4.4783226 9.04335481 -4.06032783 6.25770263 -4 3 C-3.01 2.67 -2.02 2.34 -1 2 C-1.99 1.67 -2.98 1.34 -4 1 C-1 0 -1 0 0 0 Z " fill="#DADAD8" transform="translate(36,123)"/>
<path d="M0 0 C0.66 0.66 1.32 1.32 2 2 C1.625 4.125 1.625 4.125 1 6 C0.01 5.67 -0.98 5.34 -2 5 C-2 6.98 -2 8.96 -2 11 C-2.33 11 -2.66 11 -3 11 C-3.08096803 9.54257537 -3.13917774 8.08387193 -3.1875 6.625 C-3.22230469 5.81289062 -3.25710937 5.00078125 -3.29296875 4.1640625 C-3.19628906 3.44992188 -3.09960938 2.73578125 -3 2 C-2.01 1.34 -1.02 0.68 0 0 Z " fill="#CDCDCB" transform="translate(126,120)"/>
<path d="M0 0 C0.33 0 0.66 0 1 0 C0.58669586 5.99291003 -0.31903365 9.25036599 -4 14 C-4.99 13.67 -5.98 13.34 -7 13 C-6.21625 12.154375 -5.4325 11.30875 -4.625 10.4375 C-1.83068977 7.12074083 -0.92487099 4.20395906 0 0 Z " fill="#242524" transform="translate(105,85)"/>
<path d="M0 0 C0.66 0.33 1.32 0.66 2 1 C2 1.99 2 2.98 2 4 C2.66 4.33 3.32 4.66 4 5 C-1.625 8 -1.625 8 -5 8 C-3.6875 6 -3.6875 6 -2 4 C-1.01 4 -0.02 4 1 4 C0.34 3.67 -0.32 3.34 -1 3 C-0.67 2.01 -0.34 1.02 0 0 Z " fill="#F3F3F2" transform="translate(67,77)"/>
<path d="M0 0 C0.33 0.99 0.66 1.98 1 3 C1.66 2.01 2.32 1.02 3 0 C3.33 1.65 3.66 3.3 4 5 C3.34 5 2.68 5 2 5 C1.67 5.66 1.34 6.32 1 7 C0.01 6.01 -0.98 5.02 -2 4 C-1 1 -1 1 0 0 Z " fill="#333333" transform="translate(76,76)"/>
<path d="M0 0 C0.33 0.99 0.66 1.98 1 3 C0.01 3.495 0.01 3.495 -1 4 C-1.33 3.34 -1.66 2.68 -2 2 C-3.32 2 -4.64 2 -6 2 C-6.33 3.32 -6.66 4.64 -7 6 C-7.66 6 -8.32 6 -9 6 C-8.39816251 3.97954558 -7.72693904 1.97888961 -7 0 C-4.3333581 -1.33332095 -2.83319697 -0.67102033 0 0 Z " fill="#EBEBEB" transform="translate(79,58)"/>
<path d="M0 0 C0.33 0 0.66 0 1 0 C1 1.65 1 3.3 1 5 C6.445 4.505 6.445 4.505 12 4 C8.06380686 5.96809657 5.34545324 6.67811457 1 7 C0.34 6.34 -0.32 5.68 -1 5 C-0.625 2.375 -0.625 2.375 0 0 Z " fill="#C5C5C3" transform="translate(116,129)"/>
<path d="M0 0 C5.94 0.99 5.94 0.99 12 2 C12 2.33 12 2.66 12 3 C10.21128822 3.38885039 8.41887126 3.76069196 6.625 4.125 C5.62726563 4.33382812 4.62953125 4.54265625 3.6015625 4.7578125 C2.74304688 4.83773437 1.88453125 4.91765625 1 5 C0.34 4.34 -0.32 3.68 -1 3 C-0.67 2.01 -0.34 1.02 0 0 Z " fill="#B9B9B7" transform="translate(130,131)"/>
<path d="M0 0 C0.66 0 1.32 0 2 0 C2.1875 2.875 2.1875 2.875 2 6 C-1.22791555 8.1519437 -2.28400809 8.20086443 -6 8 C-4.68 7.67 -3.36 7.34 -2 7 C-1.34 4.69 -0.68 2.38 0 0 Z " fill="#2A2A28" transform="translate(60,125)"/>
<path d="M0 0 C0.99 0 1.98 0 3 0 C3 2.64 3 5.28 3 8 C2.01 8.495 2.01 8.495 1 9 C0.63877119 7.68942607 0.28619689 6.37646376 -0.0625 5.0625 C-0.35833984 3.96615234 -0.35833984 3.96615234 -0.66015625 2.84765625 C-0.77230469 2.23792969 -0.88445312 1.62820312 -1 1 C-0.67 0.67 -0.34 0.34 0 0 Z " fill="#D3D3D1" transform="translate(67,121)"/>
<path d="M0 0 C-0.33 1.32 -0.66 2.64 -1 4 C-1.66 3.67 -2.32 3.34 -3 3 C-3 3.66 -3 4.32 -3 5 C-5.13093906 3.93453047 -6.36587557 2.70840281 -8 1 C-5.07175348 0.02391783 -3.04386724 -0.08226668 0 0 Z " fill="#3F3F3F" transform="translate(66,105)"/>
<path d="M0 0 C0.66 1.32 1.32 2.64 2 4 C0.68 5.65 -0.64 7.3 -2 9 C-2.99 8.67 -3.98 8.34 -5 8 C-3.35 5.36 -1.7 2.72 0 0 Z " fill="#D0D0CE" transform="translate(91,97)"/>
<path d="M0 0 C3 3.75 3 3.75 3 6 C3.66 6.33 4.32 6.66 5 7 C3.02 7.99 3.02 7.99 1 9 C0.01 8.34 -0.98 7.68 -2 7 C-1.34 7 -0.68 7 0 7 C0 4.69 0 2.38 0 0 Z " fill="#C3C3C1" transform="translate(38,126)"/>
<path d="M0 0 C2.97 0 5.94 0 9 0 C9 0.66 9 1.32 9 2 C6.69 2 4.38 2 2 2 C2 2.66 2 3.32 2 4 C1.34 4 0.68 4 0 4 C0 2.68 0 1.36 0 0 Z " fill="#292927" transform="translate(82,122)"/>
<path d="M0 0 C1.67542976 0.28604898 3.34385343 0.61781233 5 1 C4.34 2.65 3.68 4.3 3 6 C2.34 6 1.68 6 1 6 C0.34 4.35 -0.32 2.7 -1 1 C-0.67 0.67 -0.34 0.34 0 0 Z " fill="#D8D8D6" transform="translate(39,120)"/>
<path d="M0 0 C3.3 0.33 6.6 0.66 10 1 C10 1.66 10 2.32 10 3 C5.545 3.495 5.545 3.495 1 4 C0.67 2.68 0.34 1.36 0 0 Z " fill="#EEEEEE" transform="translate(73,64)"/>
<path d="M0 0 C1.32 0.33 2.64 0.66 4 1 C3.67 1.66 3.34 2.32 3 3 C3.27942455 4.67654729 3.60828247 6.34608154 4 8 C2.68 7.67 1.36 7.34 0 7 C0 4.69 0 2.38 0 0 Z " fill="#2E2E2D" transform="translate(74,43)"/>
<path d="M0 0 C0.99 0.33 1.98 0.66 3 1 C3.33 1.99 3.66 2.98 4 4 C6.00016466 5.20882096 6.00016466 5.20882096 8 6 C6.02 6.33 4.04 6.66 2 7 C0 4 0 4 0 0 Z " fill="#494947" transform="translate(50,126)"/>
<path d="M0 0 C0.66 1.32 1.32 2.64 2 4 C1.34 4.66 0.68 5.32 0 6 C-2.5 4.625 -2.5 4.625 -5 3 C-5 2.34 -5 1.68 -5 1 C-3.35 0.67 -1.7 0.34 0 0 Z " fill="#C0C0BE" transform="translate(101,123)"/>
<path d="M0 0 C3.3 0 6.6 0 10 0 C10 0.99 10 1.98 10 3 C6.6875 3.1875 6.6875 3.1875 3 3 C2.01 2.01 1.02 1.02 0 0 Z " fill="#E8E0D9" transform="translate(121,95)"/>
<path d="M0 0 C0.99 0.33 1.98 0.66 3 1 C3.05416188 2.60379341 3.09286638 4.20811406 3.125 5.8125 C3.14820312 6.70582031 3.17140625 7.59914063 3.1953125 8.51953125 C3 11 3 11 1 14 C0.67 9.38 0.34 4.76 0 0 Z " fill="#2E2C2E" transform="translate(95,78)"/>
<path d="M0 0 C1.98 0.495 1.98 0.495 4 1 C3.67 2.32 3.34 3.64 3 5 C1.68 4.67 0.36 4.34 -1 4 C-0.67 2.68 -0.34 1.36 0 0 Z " fill="#393939" transform="translate(69,65)"/>
<path d="M0 0 C1.98 0.495 1.98 0.495 4 1 C3.67 2.32 3.34 3.64 3 5 C1.68 4.67 0.36 4.34 -1 4 C-0.67 2.68 -0.34 1.36 0 0 Z " fill="#3D3D3D" transform="translate(65,59)"/>
<path d="M0 0 C1.98 0.495 1.98 0.495 4 1 C3.67 2.32 3.34 3.64 3 5 C1.68 4.67 0.36 4.34 -1 4 C-0.67 2.68 -0.34 1.36 0 0 Z " fill="#3E3E3E" transform="translate(69,53)"/>
<path d="M0 0 C0.66 0 1.32 0 2 0 C1.01 3.3 0.02 6.6 -1 10 C-1.33 10 -1.66 10 -2 10 C-1.85950482 8.52031676 -1.71245174 7.04125484 -1.5625 5.5625 C-1.48128906 4.73878906 -1.40007812 3.91507812 -1.31640625 3.06640625 C-1 1 -1 1 0 0 Z " fill="#2E2E2C" transform="translate(72,122)"/>
<path d="M0 0 C0 1.65 0 3.3 0 5 C-1.65 5 -3.3 5 -5 5 C-4.6875 3.0625 -4.6875 3.0625 -4 1 C-1 0 -1 0 0 0 Z " fill="#DCE5CC" transform="translate(116,101)"/>
<path d="M0 0 C2.31 0.33 4.62 0.66 7 1 C6.01 1.66 5.02 2.32 4 3 C4 3.66 4 4.32 4 5 C3.01 5.33 2.02 5.66 1 6 C0 5 0 5 -0.0625 2.4375 C-0.041875 1.633125 -0.02125 0.82875 0 0 Z " fill="#C6C6C5" transform="translate(65,93)"/>
<path d="M0 0 C1.32 0.33 2.64 0.66 4 1 C4 2.98 4 4.96 4 7 C3.34 7 2.68 7 2 7 C1.67 6.01 1.34 5.02 1 4 C0.01 3.34 -0.98 2.68 -2 2 C-1.34 2 -0.68 2 0 2 C0 1.34 0 0.68 0 0 Z " fill="#4D4D4B" transform="translate(70,83)"/>
<path d="M0 0 C-0.99 0.495 -0.99 0.495 -2 1 C-2.33 1.66 -2.66 2.32 -3 3 C-6.0625 3.625 -6.0625 3.625 -9 4 C-9 3.34 -9 2.68 -9 2 C-5.5647952 -0.29013653 -4.014669 -0.17842973 0 0 Z " fill="#E9E9E9" transform="translate(115,67)"/>
<path d="M0 0 C0.33 0.66 0.66 1.32 1 2 C3.58605332 2.4683265 3.58605332 2.4683265 6.5625 2.625 C8.08037109 2.73714844 8.08037109 2.73714844 9.62890625 2.8515625 C10.80259766 2.92503906 10.80259766 2.92503906 12 3 C12 3.33 12 3.66 12 4 C10.39773045 4.22245393 8.79303233 4.42746669 7.1875 4.625 C6.29417969 4.74101563 5.40085937 4.85703125 4.48046875 4.9765625 C2 5 2 5 -1 3 C-0.67 2.01 -0.34 1.02 0 0 Z " fill="#2B2B29" transform="translate(92,102)"/>
<path d="M0 0 C1.875 0.1875 1.875 0.1875 4 1 C5.375 3.375 5.375 3.375 6 6 C5.01 7.485 5.01 7.485 4 9 C3.525625 7.88625 3.05125 6.7725 2.5625 5.625 C1.74693537 3.73289006 0.92143645 1.84287291 0 0 Z " fill="#D4D4D4" transform="translate(88,72)"/>
<path d="M0 0 C3.33523252 1.38009621 5.18607951 2.84950652 7 6 C6.67 6.99 6.34 7.98 6 9 C5.87625 8.071875 5.87625 8.071875 5.75 7.125 C5.20605562 4.82027141 5.20605562 4.82027141 3 3.9375 C2.34 3.628125 1.68 3.31875 1 3 C0.67 2.01 0.34 1.02 0 0 Z " fill="#2B2B2B" transform="translate(84,70)"/>
<path d="M0 0 C1.4783226 2.95664519 1.06032783 5.74229737 1 9 C0.67 9 0.34 9 0 9 C0 7.35 0 5.7 0 4 C-0.99 4 -1.98 4 -3 4 C-3.33 3.01 -3.66 2.02 -4 1 C-2 0 -2 0 0 0 Z " fill="#4B4B49" transform="translate(61,43)"/>
<path d="M0 0 C1.125 1.75 1.125 1.75 2 4 C1.125 6.25 1.125 6.25 0 8 C-0.66 7.67 -1.32 7.34 -2 7 C-2 4.47717345 -1.84805104 1.84805104 0 0 Z " fill="#CCCCCA" transform="translate(64,126)"/>
<path d="M0 0 C0.928125 1.175625 0.928125 1.175625 1.875 2.375 C3.89858661 4.96837647 3.89858661 4.96837647 6 7 C4.35 7 2.7 7 1 7 C1 6.01 1 5.02 1 4 C0.34 3.67 -0.32 3.34 -1 3 C-0.67 2.01 -0.34 1.02 0 0 Z " fill="#D6CAB4" transform="translate(105,90)"/>
<path d="M0 0 C0.33 0 0.66 0 1 0 C1.36923077 5.53846154 1.36923077 5.53846154 -0.5 7.875 C-1.2425 8.431875 -1.2425 8.431875 -2 9 C-1.125 1.125 -1.125 1.125 0 0 Z " fill="#E5E5E5" transform="translate(94,90)"/>
<path d="M0 0 C2.31 0.33 4.62 0.66 7 1 C6.34 2.32 5.68 3.64 5 5 C2.5 3.625 2.5 3.625 0 2 C0 1.34 0 0.68 0 0 Z " fill="#EBEBEB" transform="translate(57,85)"/>
<path d="M0 0 C1.32 0 2.64 0 4 0 C3.67 1.65 3.34 3.3 3 5 C2.01 4.67 1.02 4.34 0 4 C0 2.68 0 1.36 0 0 Z " fill="#2F2F2F" transform="translate(73,59)"/>
<path d="M0 0 C1.98 1.65 3.96 3.3 6 5 C5.01 6.485 5.01 6.485 4 8 C2 6.25 2 6.25 0 4 C0 2.68 0 1.36 0 0 Z " fill="#3C3C3C" transform="translate(86,46)"/>
<path d="M0 0 C1.98 0 3.96 0 6 0 C5.67 0.99 5.34 1.98 5 3 C3.35 3 1.7 3 0 3 C0 2.01 0 1.02 0 0 Z " fill="#D9D9D7" transform="translate(136,129)"/>
<path d="M0 0 C1.98 0.99 1.98 0.99 4 2 C4 2.99 4 3.98 4 5 C2.68 5 1.36 5 0 5 C0 3.35 0 1.7 0 0 Z " fill="#323130" transform="translate(123,89)"/>
</svg>
